<svg height="464pt" viewBox="0 0 464 464" width="464pt" xmlns="http://www.w3.org/2000/svg"><path d="m168 400h-128l-24-368h176zm0 0" fill="#9b1e5a"/><path d="m248 264h184c17.671875 0 32 14.328125 32 32v104c0 17.671875-14.328125 32-32 32h-184c-17.671875 0-32-14.328125-32-32v-104c0-17.671875 14.328125-32 32-32zm0 0" fill="#d9176c"/><path d="m248 232h176v32h-176zm0 0" fill="#aabece"/><path d="m248 200h184c17.671875 0 32 14.328125 32 32h-248c0-17.671875 14.328125-32 32-32zm0 0" fill="#d9176c"/><path d="m48 400h112v32h-112zm0 0" fill="#aabece"/><path d="m156.664062 464h-105.328124c-15.097657 0-19.335938-32-19.335938-32h144s-4.238281 32-19.335938 32zm0 0" fill="#d9176c"/><path d="m56 88c-4.417969 0-8-3.582031-8-8v-48c0-4.417969 3.582031-8 8-8s8 3.582031 8 8v48c0 4.417969-3.582031 8-8 8zm0 0" fill="#dc93bf"/><path d="m88 72c-4.417969 0-8-3.582031-8-8v-32c0-4.417969 3.582031-8 8-8s8 3.582031 8 8v32c0 4.417969-3.582031 8-8 8zm0 0" fill="#dc93bf"/><path d="m152 176c0 26.507812-21.492188 48-48 48s-48-21.492188-48-48 21.492188-48 48-48 48 21.492188 48 48zm0 0" fill="#dc93bf"/><path d="m30.609375 256 7.300781 112h132.179688l7.300781-112zm0 0" fill="#dc93bf"/><path d="m216 296h248v104h-248zm0 0" fill="#9b1e5a"/><g fill="#dc93bf"><path d="m288 336h-40c-4.417969 0-8-3.582031-8-8s3.582031-8 8-8h40c4.417969 0 8 3.582031 8 8s-3.582031 8-8 8zm0 0"/><path d="m328 368h-80c-4.417969 0-8-3.582031-8-8s3.582031-8 8-8h80c4.417969 0 8 3.582031 8 8s-3.582031 8-8 8zm0 0"/><path d="m360 296h72v104h-72zm0 0"/><path d="m336 144c0 13.253906-10.746094 24-24 24s-24-10.746094-24-24 10.746094-24 24-24 24 10.746094 24 24zm0 0"/><path d="m400 104c0 8.835938-7.164062 16-16 16s-16-7.164062-16-16 7.164062-16 16-16 16 7.164062 16 16zm0 0"/></g><path d="m16 0h176c8.835938 0 16 7.164062 16 16s-7.164062 16-16 16h-176c-8.835938 0-16-7.164062-16-16s7.164062-16 16-16zm0 0" fill="#d9176c"/></svg>