<?xml version="1.0" encoding="UTF-8" standalone="no"?>
<!DOCTYPE svg PUBLIC "-//W3C//DTD SVG 1.1//EN" "http://www.w3.org/Graphics/SVG/1.1/DTD/svg11.dtd">
<svg version="1.1" xmlns="http://www.w3.org/2000/svg" xmlns:xlink="http://www.w3.org/1999/xlink" preserveAspectRatio="xMidYMid meet" viewBox="0 0 640 640" width="640" height="640"><defs><path d="M320.82 49.31L321.2 49.34L321.58 49.39L321.95 49.45L322.33 49.53L322.7 49.62L323.07 49.73L323.44 49.84L323.8 49.97L324.16 50.12L324.51 50.28L324.87 50.45L325.21 50.64L325.55 50.84L325.89 51.05L326.22 51.28L326.54 51.52L326.86 51.78L327.38 52.19L328.09 52.77L328.99 53.51L330.05 54.41L331.28 55.47L332.66 56.68L334.19 58.04L335.86 59.56L337.66 61.22L339.57 63.04L341.6 64.99L343.73 67.09L345.95 69.34L348.25 71.72L350.63 74.24L353.07 76.9L355.57 79.7L358.12 82.62L360.71 85.68L363.33 88.87L365.97 92.18L368.62 95.62L371.28 99.18L373.93 102.86L376.56 106.67L379.18 110.59L381.76 114.62L384.3 118.77L386.79 123.04L389.22 127.41L391.59 131.89L393.88 136.48L396.08 141.18L398.19 145.97L400.19 150.87L402.08 155.87L403.86 160.97L405.5 166.16L407 171.44L408.61 170.31L410.22 169.19L411.84 168.09L413.46 166.99L415.1 165.9L416.74 164.83L418.38 163.76L420.04 162.71L421.7 161.67L423.36 160.63L425.04 159.61L426.72 158.6L428.4 157.61L430.09 156.62L431.79 155.64L433.5 154.68L435.21 153.72L436.92 152.78L438.65 151.85L440.37 150.92L442.11 150.02L443.85 149.12L445.6 148.23L447.35 147.35L449.1 146.49L450.87 145.64L452.64 144.79L454.41 143.96L456.19 143.15L457.98 142.34L459.77 141.54L461.56 140.76L463.37 139.99L465.17 139.22L466.98 138.48L468.8 137.74L470.62 137.01L472.45 136.3L474.28 135.59L476.12 134.9L476.34 134.83L476.56 134.77L476.78 134.71L477.01 134.65L477.23 134.6L477.46 134.55L477.68 134.51L477.91 134.48L478.13 134.45L478.36 134.42L478.59 134.4L478.81 134.38L479.04 134.37L479.27 134.36L479.5 134.36L479.72 134.36L479.95 134.37L480.18 134.38L480.4 134.4L480.63 134.42L480.85 134.45L481.08 134.48L481.3 134.52L481.52 134.56L481.75 134.61L481.97 134.66L482.19 134.71L482.41 134.78L482.63 134.84L482.84 134.91L483.06 134.99L483.27 135.06L483.48 135.15L483.7 135.24L483.9 135.33L484.11 135.43L484.32 135.53L484.52 135.64L484.72 135.75L484.92 135.87L485.12 135.99L485.32 136.11L485.51 136.24L485.69 136.38L485.88 136.51L486.06 136.65L486.24 136.8L486.41 136.94L486.58 137.09L486.75 137.25L486.92 137.41L487.08 137.57L487.23 137.73L487.39 137.9L487.54 138.07L487.68 138.24L487.83 138.42L487.96 138.6L488.1 138.78L488.23 138.97L488.36 139.16L488.48 139.35L488.6 139.54L488.71 139.74L488.82 139.93L488.93 140.13L489.03 140.34L489.13 140.54L489.22 140.75L489.31 140.96L489.39 141.17L489.47 141.39L489.55 141.6L489.62 141.82L489.68 142.04L489.75 142.26L489.8 142.48L489.85 142.71L489.9 142.94L489.94 143.16L490.47 145.98L490.97 148.8L491.44 151.62L491.88 154.45L492.29 157.27L492.68 160.11L493.04 162.94L493.37 165.78L493.67 168.62L493.94 171.46L494.19 174.3L494.4 177.15L494.59 179.99L494.75 182.84L494.88 185.69L494.99 188.54L495.07 191.39L495.11 194.24L495.13 197.09L495.13 199.94L495.09 202.79L495.03 205.64L494.93 208.49L494.81 211.33L494.67 214.18L494.49 217.03L494.28 219.87L494.05 222.72L493.79 225.56L493.5 228.4L493.19 231.23L492.84 234.07L492.47 236.9L492.07 239.73L491.64 242.55L491.18 245.37L490.7 248.19L490.18 251L489.64 253.82L489.07 256.62L491.53 256.1L494 255.6L496.47 255.13L498.94 254.68L501.42 254.27L503.9 253.88L506.38 253.52L508.87 253.18L511.36 252.88L513.85 252.6L516.34 252.35L518.84 252.12L521.33 251.93L523.83 251.76L526.33 251.62L528.83 251.5L531.33 251.42L533.84 251.36L536.34 251.33L538.84 251.33L541.34 251.35L543.85 251.4L546.35 251.48L548.85 251.59L551.35 251.72L553.85 251.88L556.34 252.07L558.84 252.29L561.33 252.53L563.82 252.8L566.31 253.1L568.8 253.43L571.28 253.78L573.76 254.16L576.24 254.57L578.71 255.01L581.18 255.47L583.65 255.96L586.11 256.48L588.57 257.03L588.79 257.09L589 257.15L589.22 257.22L589.43 257.3L589.64 257.37L589.85 257.46L590.06 257.54L590.26 257.63L590.47 257.73L590.67 257.83L590.86 257.93L591.06 258.04L591.25 258.15L591.44 258.27L591.63 258.39L591.82 258.51L592 258.64L592.18 258.77L592.36 258.9L592.53 259.04L592.7 259.18L592.87 259.33L593.03 259.48L593.2 259.63L593.36 259.78L593.51 259.94L593.66 260.1L593.81 260.27L593.96 260.44L594.1 260.61L594.24 260.78L594.38 260.96L594.51 261.14L594.64 261.33L594.76 261.52L594.88 261.71L595 261.9L595.11 262.09L595.22 262.29L595.32 262.49L595.42 262.7L595.52 262.9L595.61 263.11L595.7 263.32L595.78 263.53L595.86 263.74L595.93 263.95L596 264.16L596.06 264.38L596.12 264.59L596.18 264.81L596.23 265.03L596.27 265.24L596.31 265.46L596.35 265.68L596.38 265.9L596.41 266.12L596.43 266.34L596.45 266.57L596.46 266.79L596.47 267.01L596.47 267.23L596.47 267.45L596.47 267.68L596.46 267.9L596.44 268.12L596.42 268.34L596.4 268.56L596.37 268.78L596.34 269L596.3 269.22L596.25 269.44L596.21 269.66L596.16 269.88L596.1 270.1L596.04 270.31L595.97 270.53L595.9 270.74L595.82 270.96L595.74 271.17L594.75 273.96L593.71 276.74L592.65 279.49L591.54 282.24L590.41 284.96L589.23 287.67L588.03 290.37L586.78 293.04L585.51 295.7L584.2 298.34L582.86 300.96L581.48 303.56L580.07 306.14L578.63 308.71L577.15 311.25L575.64 313.78L574.1 316.28L572.53 318.76L570.92 321.23L569.28 323.67L567.62 326.09L565.92 328.49L564.18 330.86L562.42 333.22L560.63 335.55L558.81 337.86L556.95 340.14L555.07 342.4L553.15 344.64L551.21 346.85L549.24 349.04L547.24 351.21L545.2 353.34L543.14 355.46L541.06 357.54L538.94 359.61L536.79 361.64L534.62 363.65L532.42 365.63L530.19 367.58L532.82 368.75L535.45 369.93L538.06 371.14L540.66 372.38L543.25 373.63L545.83 374.91L548.4 376.21L550.95 377.53L553.49 378.87L556.02 380.24L558.53 381.63L561.04 383.04L563.53 384.47L566.01 385.92L568.47 387.39L570.92 388.89L573.36 390.41L575.78 391.95L578.19 393.5L580.59 395.09L582.97 396.69L585.34 398.31L587.69 399.95L590.03 401.62L592.36 403.3L594.67 405.01L596.97 406.73L599.25 408.48L601.51 410.24L603.76 412.03L606 413.84L608.22 415.66L610.42 417.51L612.61 419.37L614.78 421.26L616.94 423.16L619.08 425.09L621.2 427.03L623.31 428.99L625.4 430.98L625.56 431.15L625.72 431.32L625.87 431.5L626.02 431.68L626.17 431.86L626.31 432.05L626.44 432.24L626.57 432.43L626.7 432.62L626.82 432.82L626.94 433.02L627.06 433.22L627.17 433.42L627.27 433.63L627.37 433.84L627.47 434.05L627.56 434.26L627.64 434.47L627.73 434.69L627.8 434.9L627.88 435.12L627.94 435.34L628.01 435.56L628.06 435.79L628.12 436.01L628.17 436.24L628.21 436.46L628.25 436.69L628.28 436.92L628.31 437.15L628.33 437.38L628.35 437.61L628.37 437.84L628.38 438.07L628.38 438.31L628.38 438.54L628.37 438.77L628.36 439.01L628.34 439.24L628.32 439.48L628.29 439.71L628.26 439.94L628.22 440.17L628.18 440.4L628.13 440.63L628.08 440.86L628.02 441.08L627.96 441.31L627.89 441.53L627.82 441.75L627.75 441.97L627.66 442.18L627.58 442.4L627.49 442.61L627.4 442.82L627.3 443.03L627.19 443.23L627.08 443.44L626.97 443.64L626.86 443.84L626.74 444.03L626.61 444.22L626.48 444.42L626.35 444.6L626.21 444.79L626.07 444.97L625.92 445.15L625.77 445.32L625.62 445.5L625.46 445.67L625.3 445.83L625.14 446L624.97 446.16L624.8 446.31L624.62 446.46L624.44 446.61L624.26 446.76L624.07 446.9L623.88 447.04L623.69 447.17L620.09 449.57L616.49 451.91L612.9 454.19L609.3 456.41L605.72 458.57L602.13 460.67L598.55 462.7L594.97 464.68L591.39 466.6L587.82 468.45L584.25 470.25L580.68 471.98L577.12 473.65L573.56 475.27L570.01 476.82L566.45 478.31L562.91 479.74L559.36 481.11L555.82 482.42L552.29 483.67L548.76 484.86L545.23 485.99L541.7 487.06L538.19 488.06L534.67 489.01L531.16 489.89L527.66 490.72L524.16 491.48L520.66 492.18L517.17 492.82L513.68 493.4L510.2 493.92L506.73 494.38L503.25 494.77L499.79 495.11L496.33 495.38L492.87 495.6L489.42 495.75L485.98 495.84L482.54 495.87L481.62 495.87L480.69 495.87L479.77 495.86L478.84 495.84L477.92 495.82L476.99 495.8L476.07 495.77L475.15 495.74L474.22 495.7L473.3 495.66L472.38 495.61L471.45 495.56L470.53 495.51L469.61 495.45L468.69 495.38L467.77 495.31L466.85 495.24L465.93 495.16L465.01 495.08L464.09 494.99L463.17 494.9L462.25 494.81L461.33 494.71L460.41 494.6L459.49 494.49L458.58 494.38L457.66 494.26L456.74 494.14L455.83 494.01L454.91 493.88L454 493.75L453.09 493.61L452.17 493.46L451.26 493.31L450.35 493.16L449.44 493L448.53 492.84L447.62 492.67L446.71 492.5L445.8 492.32L442.1 491.47L438.42 490.56L434.76 489.58L431.12 488.55L427.51 487.46L423.91 486.31L420.34 485.09L416.79 483.82L413.27 482.5L409.78 481.11L406.3 479.67L402.86 478.17L399.44 476.61L396.06 475L392.7 473.33L389.36 471.61L386.06 469.83L382.79 468L379.56 466.11L376.35 464.17L373.18 462.18L370.04 460.13L366.93 458.03L363.86 455.88L360.82 453.68L357.82 451.43L354.86 449.13L351.94 446.77L349.05 444.37L346.2 441.92L343.39 439.41L340.62 436.86L337.89 434.27L335.21 431.62L332.56 428.93L329.96 426.19L327.4 423.4L324.89 420.57L322.42 417.69L320 414.76L317.57 417.69L315.11 420.56L312.59 423.4L310.03 426.18L307.43 428.92L304.79 431.62L302.1 434.26L299.37 436.86L296.61 439.41L293.8 441.91L290.95 444.36L288.06 446.76L285.14 449.12L282.17 451.42L279.17 453.67L276.14 455.87L273.07 458.02L269.96 460.12L266.82 462.17L263.65 464.16L260.44 466.1L257.2 467.98L253.93 469.82L250.63 471.59L247.3 473.32L243.94 474.98L240.55 476.6L237.14 478.15L233.69 479.65L230.22 481.09L226.73 482.48L223.21 483.81L219.66 485.08L216.09 486.29L212.49 487.44L208.88 488.53L205.24 489.56L201.58 490.54L197.9 491.45L194.2 492.3L193.29 492.48L192.38 492.65L191.47 492.82L190.56 492.98L189.65 493.14L188.74 493.29L187.83 493.44L186.91 493.59L186 493.73L185.09 493.86L184.17 493.99L183.26 494.12L182.34 494.24L181.42 494.36L180.51 494.48L179.59 494.59L178.67 494.69L177.75 494.79L176.83 494.89L175.91 494.98L174.99 495.07L174.07 495.15L173.15 495.23L172.23 495.3L171.31 495.37L170.39 495.44L169.47 495.5L168.55 495.55L167.62 495.6L166.7 495.65L165.78 495.69L164.85 495.73L163.93 495.77L163.01 495.79L162.08 495.82L161.16 495.84L160.23 495.85L159.31 495.86L158.38 495.87L157.46 495.87L154.02 495.84L150.57 495.75L147.12 495.6L143.67 495.38L140.21 495.11L136.74 494.77L133.27 494.38L129.79 493.92L126.31 493.4L122.83 492.82L119.34 492.18L115.84 491.48L112.34 490.72L108.83 489.9L105.32 489.01L101.81 488.07L98.29 487.07L94.77 486L91.24 484.87L87.71 483.69L84.17 482.44L80.63 481.13L77.09 479.76L73.54 478.33L69.99 476.84L66.44 475.29L62.88 473.68L59.32 472L55.75 470.27L52.18 468.48L48.61 466.62L45.03 464.71L41.45 462.73L37.87 460.69L34.28 458.6L30.7 456.44L27.1 454.22L23.51 451.94L19.91 449.61L16.31 447.21L16.12 447.07L15.93 446.94L15.74 446.79L15.56 446.65L15.38 446.5L15.2 446.35L15.03 446.19L14.86 446.03L14.7 445.87L14.54 445.7L14.38 445.53L14.23 445.36L14.08 445.18L13.93 445L13.79 444.82L13.65 444.64L13.52 444.45L13.39 444.26L13.26 444.07L13.14 443.87L13.03 443.67L12.92 443.47L12.81 443.27L12.7 443.06L12.6 442.85L12.51 442.64L12.42 442.43L12.34 442.22L12.25 442L12.18 441.78L12.11 441.56L12.04 441.34L11.98 441.12L11.92 440.89L11.87 440.66L11.82 440.44L11.78 440.21L11.74 439.97L11.71 439.74L11.68 439.51L11.66 439.27L11.64 439.04L11.63 438.8L11.62 438.57L11.62 438.34L11.62 438.1L11.63 437.87L11.65 437.64L11.67 437.41L11.69 437.18L11.72 436.95L11.75 436.72L11.79 436.49L11.83 436.27L11.88 436.04L11.94 435.82L11.99 435.59L12.06 435.37L12.12 435.15L12.2 434.93L12.27 434.72L12.36 434.5L12.44 434.29L12.53 434.08L12.63 433.87L12.73 433.66L12.83 433.45L12.94 433.25L13.06 433.05L13.18 432.85L13.3 432.66L13.43 432.46L13.56 432.27L13.69 432.08L13.83 431.9L13.98 431.71L14.13 431.53L14.28 431.35L14.44 431.18L14.6 431.01L16.69 429.02L18.8 427.06L20.93 425.11L23.07 423.18L25.23 421.27L27.41 419.38L29.6 417.51L31.81 415.66L34.03 413.83L36.27 412.02L38.52 410.24L40.79 408.47L43.07 406.72L45.37 404.99L47.69 403.28L50.01 401.59L52.36 399.93L54.72 398.28L57.09 396.65L59.47 395.05L61.87 393.47L64.29 391.9L66.71 390.36L69.15 388.84L71.61 387.34L74.08 385.87L76.56 384.41L79.05 382.98L81.56 381.57L84.08 380.18L86.61 378.81L89.16 377.46L91.71 376.14L94.28 374.84L96.86 373.56L99.46 372.3L102.06 371.07L104.68 369.85L107.31 368.66L109.95 367.5L107.72 365.55L105.51 363.57L103.34 361.57L101.19 359.53L99.07 357.48L96.98 355.39L94.91 353.28L92.88 351.14L90.88 348.98L88.9 346.8L86.95 344.59L85.04 342.35L83.15 340.09L81.3 337.81L79.47 335.5L77.67 333.17L75.91 330.82L74.18 328.45L72.47 326.05L70.8 323.63L69.16 321.19L67.56 318.73L65.98 316.25L64.44 313.74L62.93 311.22L61.45 308.68L60 306.11L58.59 303.53L57.21 300.93L55.87 298.31L54.56 295.67L53.28 293.02L52.04 290.34L50.83 287.65L49.65 284.94L48.51 282.21L47.41 279.47L46.34 276.71L45.31 273.94L44.31 271.15L44.23 270.94L44.15 270.72L44.08 270.51L44.02 270.29L43.95 270.08L43.9 269.86L43.85 269.64L43.8 269.42L43.76 269.2L43.72 268.98L43.68 268.76L43.66 268.54L43.63 268.32L43.61 268.1L43.6 267.88L43.59 267.65L43.58 267.43L43.58 267.21L43.59 266.99L43.59 266.77L43.61 266.54L43.63 266.32L43.65 266.1L43.67 265.88L43.71 265.66L43.74 265.44L43.78 265.22L43.83 265L43.88 264.79L43.93 264.57L43.99 264.36L44.06 264.14L44.13 263.93L44.2 263.72L44.28 263.51L44.36 263.3L44.45 263.09L44.54 262.88L44.63 262.68L44.73 262.47L44.84 262.27L44.95 262.07L45.06 261.88L45.18 261.68L45.3 261.49L45.42 261.31L45.55 261.12L45.68 260.94L45.82 260.76L45.96 260.59L46.1 260.42L46.24 260.25L46.39 260.08L46.55 259.92L46.7 259.76L46.86 259.6L47.02 259.45L47.19 259.3L47.36 259.16L47.53 259.02L47.7 258.88L47.88 258.74L48.06 258.61L48.24 258.49L48.42 258.36L48.61 258.25L48.8 258.13L49 258.02L49.19 257.91L49.39 257.81L49.59 257.71L49.79 257.61L49.99 257.52L50.2 257.44L50.41 257.35L50.62 257.27L50.83 257.2L51.05 257.13L51.26 257.07L51.48 257.01L53.94 256.48L56.41 255.99L58.88 255.52L61.35 255.07L63.83 254.66L66.31 254.27L68.79 253.9L71.28 253.57L73.77 253.26L76.26 252.97L78.75 252.72L81.25 252.49L83.74 252.29L86.24 252.11L88.74 251.96L91.24 251.84L93.74 251.74L96.25 251.68L98.75 251.63L101.25 251.62L103.75 251.63L106.26 251.67L108.76 251.73L111.26 251.83L113.76 251.94L116.26 252.09L118.76 252.26L121.26 252.46L123.75 252.69L126.25 252.94L128.74 253.22L131.23 253.53L133.71 253.86L136.2 254.22L138.68 254.61L141.15 255.02L143.63 255.46L146.1 255.93L148.56 256.42L151.03 256.94L150.45 254.13L149.9 251.31L149.39 248.49L148.9 245.66L148.44 242.83L148 240L147.6 237.16L147.22 234.32L146.87 231.48L146.55 228.64L146.26 225.79L145.99 222.94L145.76 220.09L145.55 217.24L145.37 214.39L145.22 211.53L145.1 208.67L145 205.82L144.94 202.96L144.9 200.1L144.89 197.24L144.91 194.38L144.95 191.52L145.03 188.67L145.13 185.81L145.26 182.95L145.42 180.1L145.61 177.24L145.83 174.39L146.07 171.54L146.35 168.69L146.65 165.84L146.98 163L147.34 160.16L147.72 157.32L148.14 154.48L148.58 151.64L149.05 148.81L149.55 145.99L150.08 143.16L150.12 142.94L150.17 142.71L150.22 142.48L150.27 142.26L150.34 142.04L150.4 141.82L150.47 141.6L150.55 141.39L150.63 141.17L150.71 140.96L150.8 140.75L150.89 140.54L150.99 140.34L151.09 140.13L151.2 139.93L151.31 139.74L151.42 139.54L151.54 139.35L151.67 139.16L151.79 138.97L151.92 138.78L152.06 138.6L152.2 138.42L152.34 138.24L152.48 138.07L152.63 137.9L152.79 137.73L152.94 137.57L153.1 137.41L153.27 137.25L153.44 137.09L153.61 136.94L153.78 136.8L153.96 136.65L154.14 136.51L154.33 136.38L154.51 136.24L154.7 136.11L154.9 135.99L155.1 135.87L155.3 135.75L155.5 135.64L155.7 135.53L155.91 135.43L156.12 135.33L156.33 135.24L156.54 135.15L156.75 135.06L156.96 134.99L157.18 134.91L157.4 134.84L157.61 134.78L157.83 134.71L158.05 134.66L158.28 134.61L158.5 134.56L158.72 134.52L158.94 134.48L159.17 134.45L159.39 134.42L159.62 134.4L159.85 134.38L160.07 134.37L160.3 134.36L160.53 134.36L160.75 134.36L160.98 134.37L161.21 134.38L161.44 134.4L161.66 134.42L161.89 134.45L162.11 134.48L162.34 134.51L162.57 134.55L162.79 134.6L163.01 134.65L163.24 134.71L163.46 134.77L163.68 134.83L163.9 134.9L165.88 135.65L167.84 136.41L169.81 137.18L171.76 137.96L173.71 138.76L175.66 139.57L177.6 140.4L179.53 141.23L181.46 142.09L183.38 142.95L185.29 143.83L187.2 144.72L189.1 145.62L191 146.54L192.88 147.47L194.77 148.41L196.64 149.37L198.51 150.34L200.37 151.32L202.22 152.32L204.07 153.32L205.91 154.34L207.75 155.38L209.57 156.42L211.39 157.48L213.2 158.55L215.01 159.64L216.81 160.73L218.6 161.84L220.38 162.97L222.15 164.1L223.92 165.25L225.68 166.4L227.43 167.58L229.17 168.76L230.91 169.96L232.64 171.16L234.36 172.38L236.07 173.62L237.77 174.86L238.57 171.76L239.42 168.67L240.33 165.57L241.29 162.48L242.31 159.39L243.38 156.3L244.51 153.21L245.69 150.12L246.93 147.03L248.22 143.95L249.57 140.87L250.97 137.79L252.43 134.71L253.94 131.63L255.5 128.56L257.12 125.48L258.8 122.41L260.53 119.34L262.32 116.28L264.16 113.21L266.05 110.15L268 107.09L270.01 104.03L272.06 100.98L274.18 97.92L276.35 94.87L278.57 91.82L280.85 88.78L283.18 85.74L285.56 82.7L288 79.66L290.5 76.62L293.05 73.59L295.65 70.56L298.31 67.54L301.02 64.51L303.79 61.49L306.61 58.48L309.49 55.46L312.42 52.45L312.71 52.17L313 51.9L313.31 51.64L313.62 51.4L313.94 51.17L314.26 50.95L314.59 50.75L314.93 50.56L315.28 50.38L315.62 50.22L315.98 50.06L316.33 49.93L316.7 49.8L317.06 49.69L317.43 49.59L317.8 49.5L318.17 49.43L318.55 49.37L318.92 49.33L319.3 49.3L319.68 49.28L320.06 49.27L320.44 49.28L320.82 49.31ZM430 368.33L425.32 368.6L420.67 368.99L416.02 369.51L411.4 370.15L406.78 370.91L402.19 371.8L397.61 372.81L393.05 373.94L388.5 375.19L383.97 376.57L379.46 378.07L374.97 379.69L370.49 381.43L366.03 383.3L361.59 385.29L357.16 387.4L352.75 389.63L348.36 391.99L343.99 394.47L339.64 397.07L335.3 399.79L336.74 401.53L338.2 403.24L339.67 404.94L341.16 406.63L342.66 408.29L344.18 409.95L345.72 411.58L347.27 413.2L348.84 414.81L350.43 416.4L352.03 417.97L353.64 419.52L355.27 421.06L356.92 422.58L358.58 424.08L360.26 425.57L361.95 427.04L363.65 428.49L365.37 429.92L367.11 431.34L368.86 432.74L370.62 434.12L372.4 435.49L374.19 436.83L375.99 438.16L377.81 439.47L379.64 440.76L381.49 442.03L383.35 443.29L385.22 444.52L387.1 445.74L389 446.94L390.9 448.11L392.83 449.27L394.76 450.42L396.71 451.54L398.66 452.64L400.63 453.72L402.61 454.78L404.61 455.83L409.17 458.04L413.76 460.12L418.36 462.06L422.98 463.86L427.62 465.53L432.28 467.05L436.96 468.44L441.65 469.69L446.37 470.8L451.1 471.78L455.85 472.61L460.61 473.31L465.4 473.87L470.2 474.29L475.01 474.57L479.85 474.72L484.7 474.73L489.57 474.6L494.45 474.33L499.35 473.92L504.27 473.38L509.2 472.69L514.15 471.87L519.11 470.92L524.09 469.82L529.09 468.59L534.1 467.22L539.12 465.71L544.17 464.06L549.22 462.28L554.29 460.35L559.37 458.29L564.47 456.1L569.59 453.76L574.71 451.29L579.85 448.68L585.01 445.93L590.18 443.04L595.36 440.02L600.55 436.86L598.78 435.31L596.99 433.78L595.19 432.26L593.38 430.75L591.56 429.26L589.73 427.78L587.89 426.32L586.04 424.87L584.17 423.44L582.3 422.02L580.41 420.62L578.52 419.23L576.61 417.85L574.7 416.49L572.77 415.15L570.84 413.82L568.89 412.5L566.93 411.2L564.97 409.91L562.99 408.64L561.01 407.39L559.01 406.15L557.01 404.92L554.99 403.71L552.97 402.52L550.94 401.34L548.9 400.18L546.85 399.03L544.79 397.9L542.72 396.78L540.64 395.68L538.56 394.59L536.46 393.52L534.36 392.47L532.25 391.43L530.13 390.41L528 389.41L525.86 388.42L523.72 387.44L521.56 386.49L516.62 384.42L511.7 382.49L506.78 380.67L501.88 378.98L496.99 377.41L492.11 375.96L487.25 374.63L482.4 373.43L477.56 372.35L472.74 371.4L467.94 370.57L463.14 369.86L458.36 369.27L453.6 368.8L448.85 368.46L444.11 368.24L439.39 368.15L434.69 368.18L430 368.33ZM191.18 368.47L186.43 368.81L181.67 369.27L176.89 369.86L172.09 370.57L167.29 371.4L162.46 372.36L157.63 373.44L152.78 374.64L147.92 375.96L143.04 377.41L138.15 378.98L133.24 380.67L128.33 382.49L123.4 384.42L118.46 386.49L116.3 387.44L114.16 388.42L112.02 389.41L109.89 390.41L107.77 391.43L105.66 392.47L103.56 393.52L101.47 394.59L99.38 395.68L97.3 396.78L95.23 397.9L93.17 399.03L91.12 400.18L89.08 401.34L87.05 402.52L85.03 403.71L83.01 404.92L81.01 406.15L79.01 407.39L77.03 408.64L75.05 409.91L73.09 411.2L71.13 412.5L69.19 413.82L67.25 415.15L65.32 416.49L63.41 417.85L61.5 419.23L59.61 420.62L57.72 422.02L55.85 423.44L53.98 424.87L52.13 426.32L50.29 427.78L48.46 429.26L46.64 430.75L44.83 432.26L43.03 433.78L41.24 435.31L39.47 436.86L44.66 440.02L49.84 443.04L55.01 445.93L60.16 448.68L65.3 451.29L70.43 453.76L75.54 456.1L80.64 458.29L85.73 460.35L90.79 462.28L95.85 464.06L100.89 465.71L105.91 467.22L110.92 468.59L115.92 469.82L120.9 470.92L125.86 471.87L130.81 472.69L135.74 473.38L140.66 473.92L145.56 474.33L150.44 474.6L155.31 474.73L160.16 474.72L165 474.57L169.81 474.29L174.61 473.87L179.4 473.31L184.16 472.61L188.91 471.78L193.64 470.8L198.35 469.69L203.05 468.44L207.72 467.05L212.38 465.53L217.02 463.86L221.64 462.06L226.24 460.12L230.83 458.04L235.39 455.83L237.39 454.78L239.37 453.72L241.34 452.64L243.3 451.54L245.25 450.42L247.18 449.27L249.1 448.11L251.01 446.94L252.91 445.74L254.8 444.52L256.67 443.29L258.53 442.03L260.37 440.76L262.2 439.47L264.02 438.16L265.83 436.83L267.62 435.49L269.4 434.12L271.16 432.74L272.91 431.34L274.64 429.92L276.37 428.49L278.07 427.04L279.76 425.57L281.44 424.08L283.1 422.58L284.75 421.06L286.38 419.52L288 417.97L289.6 416.4L291.18 414.81L292.75 413.2L294.3 411.58L295.84 409.95L297.36 408.29L298.87 406.63L300.36 404.94L301.83 403.24L303.28 401.53L304.72 399.79L300.39 397.07L296.04 394.47L291.66 391.99L287.27 389.63L282.87 387.4L278.44 385.29L274 383.3L269.54 381.43L265.06 379.69L260.57 378.07L256.06 376.57L251.53 375.19L246.98 373.94L242.42 372.81L237.84 371.8L233.25 370.92L228.64 370.15L224.01 369.51L219.37 369L214.71 368.6L210.03 368.33L205.34 368.18L200.64 368.15L195.92 368.25L191.18 368.47ZM467.85 161.26L466.29 161.97L464.73 162.69L463.17 163.43L461.62 164.17L460.07 164.91L458.53 165.67L456.99 166.44L455.46 167.21L453.93 168L452.4 168.79L450.88 169.59L449.37 170.4L447.86 171.21L446.35 172.04L444.85 172.87L443.35 173.72L441.86 174.57L440.37 175.43L438.89 176.29L437.41 177.17L435.94 178.06L434.47 178.95L433.01 179.85L431.55 180.76L430.1 181.68L428.65 182.6L427.21 183.54L425.77 184.48L424.34 185.43L422.92 186.39L421.5 187.36L420.08 188.33L418.67 189.31L417.26 190.31L415.87 191.31L414.47 192.31L413.08 193.33L411.7 194.35L411.75 194.75L411.8 195.16L411.85 195.56L411.9 195.96L411.95 196.36L412 196.77L412.04 197.17L412.09 197.57L412.14 197.98L412.18 198.38L412.22 198.79L412.26 199.19L412.31 199.6L412.35 200L412.39 200.41L412.42 200.82L412.46 201.23L412.5 201.63L412.53 202.04L412.57 202.45L412.6 202.86L412.63 203.27L412.67 203.68L412.7 204.09L412.73 204.5L412.75 204.91L412.78 205.32L412.81 205.73L412.83 206.15L412.86 206.56L412.88 206.97L412.9 207.38L412.92 207.8L412.94 208.21L412.96 208.63L412.98 209.04L413 209.46L413.01 209.87L413.03 210.29L413.04 210.71L413.11 214.86L413.08 219.01L412.94 223.14L412.7 227.27L412.35 231.39L411.9 235.5L411.34 239.6L410.68 243.7L409.91 247.78L409.04 251.86L408.07 255.92L406.99 259.98L405.8 264.03L404.51 268.07L403.12 272.1L401.62 276.11L400.02 280.12L398.32 284.12L396.51 288.11L394.59 292.09L392.58 296.06L390.46 300.01L388.23 303.96L385.91 307.9L383.48 311.82L380.94 315.74L378.3 319.64L375.56 323.53L372.72 327.41L369.77 331.28L366.72 335.14L363.57 338.99L360.32 342.83L356.96 346.65L353.5 350.46L349.93 354.26L346.27 358.05L342.5 361.82L338.63 365.59L334.65 369.34L334.64 369.5L334.63 369.66L334.62 369.82L334.61 369.98L334.6 370.13L334.58 370.29L334.57 370.45L334.56 370.61L334.55 370.77L334.53 370.93L334.52 371.09L334.51 371.25L334.49 371.41L334.48 371.58L334.46 371.74L334.45 371.9L334.44 372.06L334.42 372.22L334.41 372.38L334.39 372.54L334.38 372.7L334.36 372.86L334.35 373.03L334.33 373.19L334.32 373.35L334.3 373.52L334.29 373.68L334.27 373.84L334.25 374.01L334.24 374.17L334.22 374.33L334.2 374.5L334.19 374.66L334.17 374.83L334.15 375L334.14 375.16L334.12 375.33L334.1 375.5L334.09 375.66L334.07 375.83L334.89 375.36L335.71 374.89L336.53 374.43L337.36 373.97L338.18 373.51L339.01 373.05L339.84 372.6L340.68 372.16L341.51 371.71L342.35 371.27L343.19 370.84L344.03 370.4L344.87 369.97L345.71 369.55L346.56 369.13L347.41 368.71L348.25 368.29L349.11 367.88L349.96 367.48L350.81 367.07L351.67 366.67L352.53 366.27L353.39 365.88L354.25 365.49L355.11 365.11L355.97 364.72L356.84 364.35L357.71 363.97L358.58 363.6L359.45 363.23L360.32 362.87L361.19 362.51L362.07 362.15L362.95 361.8L363.83 361.45L364.71 361.11L365.59 360.77L366.47 360.43L367.36 360.1L368.24 359.77L369.58 356.48L370.99 353.22L372.46 350L373.99 346.82L375.59 343.68L377.25 340.58L378.97 337.51L380.75 334.49L382.6 331.51L384.5 328.57L386.46 325.68L388.48 322.82L390.55 320.02L392.69 317.26L394.87 314.54L397.12 311.87L399.41 309.25L401.76 306.68L404.16 304.16L406.61 301.69L409.12 299.27L411.67 296.9L414.27 294.59L416.92 292.32L419.61 290.12L422.36 287.96L425.15 285.87L427.98 283.83L430.86 281.85L433.78 279.92L436.74 278.06L439.74 276.25L442.79 274.51L445.87 272.83L449 271.21L452.16 269.65L455.36 268.16L458.6 266.73L461.87 265.36L465.18 264.07L465.86 261.52L466.52 258.97L467.15 256.41L467.75 253.84L468.32 251.27L468.87 248.7L469.39 246.12L469.88 243.54L470.35 240.95L470.78 238.36L471.19 235.76L471.57 233.16L471.93 230.56L472.25 227.96L472.55 225.35L472.82 222.74L473.06 220.12L473.28 217.51L473.47 214.89L473.63 212.27L473.76 209.65L473.86 207.03L473.94 204.41L473.99 201.78L474.01 199.16L474.01 196.53L473.97 193.91L473.91 191.28L473.82 188.66L473.7 186.03L473.56 183.41L473.38 180.78L473.18 178.16L472.95 175.54L472.7 172.92L472.41 170.3L472.1 167.69L471.76 165.08L471.39 162.46L470.99 159.86L469.42 160.55L467.85 161.26ZM168.21 165.08L167.87 167.69L167.56 170.31L167.27 172.92L167.02 175.54L166.79 178.16L166.59 180.79L166.41 183.41L166.27 186.03L166.15 188.66L166.06 191.28L166 193.91L165.97 196.53L165.96 199.16L165.98 201.78L166.03 204.41L166.11 207.03L166.22 209.65L166.35 212.28L166.51 214.89L166.7 217.51L166.92 220.13L167.16 222.74L167.43 225.35L167.73 227.96L168.06 230.56L168.41 233.17L168.79 235.77L169.2 238.36L169.64 240.95L170.11 243.54L170.6 246.12L171.12 248.7L171.67 251.27L172.24 253.84L172.85 256.41L173.48 258.97L174.14 261.52L174.82 264.07L178.13 265.36L181.41 266.71L184.64 268.13L187.84 269.62L191.01 271.17L194.13 272.79L197.22 274.46L200.27 276.2L203.27 278L206.23 279.86L209.16 281.78L212.03 283.76L214.87 285.8L217.66 287.89L220.4 290.04L223.09 292.25L225.74 294.51L228.34 296.82L230.89 299.18L233.4 301.6L235.85 304.07L238.25 306.59L240.59 309.16L242.89 311.78L245.13 314.45L247.31 317.16L249.44 319.92L251.51 322.73L253.53 325.58L255.49 328.48L257.39 331.41L259.22 334.4L261 337.42L262.72 340.48L264.38 343.59L265.97 346.73L267.5 349.91L268.96 353.13L270.36 356.39L271.69 359.68L272.58 360.01L273.46 360.35L274.35 360.69L275.23 361.03L276.11 361.38L276.99 361.73L277.87 362.08L278.74 362.44L279.62 362.8L280.49 363.16L281.36 363.53L282.23 363.91L283.1 364.28L283.97 364.66L284.83 365.05L285.7 365.43L286.56 365.82L287.42 366.22L288.28 366.62L289.13 367.02L289.99 367.43L290.84 367.84L291.69 368.25L292.54 368.66L293.39 369.09L294.24 369.51L295.08 369.94L295.93 370.37L296.77 370.8L297.6 371.24L298.44 371.68L299.28 372.13L300.11 372.58L300.94 373.03L301.77 373.49L302.6 373.95L303.42 374.41L304.25 374.88L305.07 375.35L305.89 375.82L305.88 375.67L305.86 375.52L305.85 375.37L305.84 375.22L305.82 375.08L305.81 374.93L305.78 374.63L305.77 374.48L305.75 374.33L305.74 374.18L305.73 374.03L305.71 373.88L305.7 373.73L305.68 373.59L305.67 373.44L305.66 373.29L305.64 373.14L305.63 372.99L305.62 372.84L305.6 372.69L305.59 372.54L305.58 372.4L305.57 372.25L305.55 372.1L305.54 371.95L305.53 371.8L305.51 371.65L305.5 371.5L305.49 371.36L305.48 371.21L305.47 371.06L305.45 370.91L305.44 370.76L305.43 370.62L305.42 370.47L305.41 370.32L305.4 370.17L305.39 370.02L305.38 369.88L303.86 368.5L302.24 367L300.53 365.38L298.73 363.64L296.86 361.78L294.91 359.81L292.89 357.72L290.81 355.52L288.69 353.2L286.51 350.77L284.3 348.23L282.05 345.58L279.78 342.82L277.49 339.95L275.18 336.98L272.87 333.89L270.56 330.7L268.25 327.41L265.96 324.01L263.69 320.51L261.45 316.91L259.24 313.21L257.07 309.41L254.95 305.51L252.88 301.51L250.87 297.42L248.93 293.23L247.07 288.95L245.28 284.57L243.58 280.1L241.97 275.54L240.47 270.88L239.07 266.14L237.79 261.31L236.62 256.39L235.58 251.39L234.68 246.3L233.92 241.12L233.3 235.87L232.84 230.53L232.78 229.72L232.73 228.92L232.69 228.12L232.64 227.32L232.61 226.52L232.57 225.71L232.54 224.91L232.51 224.11L232.49 223.3L232.46 222.5L232.45 221.7L232.43 220.9L232.42 220.09L232.42 219.29L232.42 218.49L232.42 217.68L232.42 216.88L232.43 216.08L232.44 215.27L232.46 214.47L232.48 213.67L232.5 212.87L232.53 212.06L232.56 211.26L232.59 210.46L232.63 209.66L232.67 208.86L232.72 208.05L232.77 207.25L232.82 206.45L232.88 205.65L232.94 204.85L233 204.05L233.07 203.25L233.14 202.45L233.21 201.65L233.29 200.85L233.37 200.05L233.46 199.25L233.55 198.45L232.06 197.29L230.56 196.14L229.06 195L227.54 193.87L226.03 192.76L224.5 191.65L222.97 190.54L221.43 189.45L219.88 188.37L218.33 187.3L216.78 186.24L215.21 185.19L213.64 184.15L212.06 183.12L210.48 182.09L208.89 181.08L207.29 180.08L205.69 179.09L204.08 178.11L202.47 177.14L200.85 176.17L199.22 175.22L197.59 174.28L195.95 173.35L194.31 172.43L192.66 171.52L191 170.62L189.34 169.73L187.67 168.85L186 167.98L184.32 167.12L182.64 166.27L180.95 165.43L179.25 164.6L177.55 163.79L175.85 162.98L174.14 162.18L172.42 161.4L170.7 160.62L168.98 159.86L168.58 162.46L168.21 165.08ZM533.27 272.7L530.91 272.77L528.54 272.87L526.18 273L523.83 273.15L521.47 273.33L519.11 273.54L516.76 273.78L514.41 274.05L512.07 274.34L509.72 274.66L507.38 275.01L505.05 275.39L502.71 275.79L500.38 276.22L498.06 276.68L495.74 277.16L493.43 277.67L491.12 278.21L488.81 278.78L486.52 279.38L484.22 280L481.94 280.65L479.66 281.32L477.39 282.03L477.21 282.03L474.59 282.95L472 283.91L469.43 284.93L466.88 286L464.35 287.11L461.85 288.26L459.38 289.47L456.93 290.72L454.51 292.01L452.12 293.35L449.75 294.73L447.42 296.16L445.11 297.63L442.83 299.14L440.58 300.69L438.37 302.29L436.18 303.92L434.03 305.6L431.91 307.32L429.82 309.08L427.76 310.87L425.74 312.71L423.76 314.58L421.81 316.49L419.89 318.44L418.02 320.42L416.18 322.45L414.37 324.5L412.61 326.6L410.88 328.72L409.19 330.88L407.55 333.08L405.94 335.31L404.37 337.57L402.85 339.86L401.37 342.19L399.93 344.55L398.53 346.94L397.18 349.35L395.87 351.8L398.63 351.26L401.4 350.75L404.18 350.28L406.95 349.84L409.73 349.44L412.52 349.08L415.3 348.76L418.09 348.47L420.88 348.22L423.68 348.01L426.47 347.83L429.26 347.69L432.06 347.59L434.86 347.52L437.65 347.5L440.45 347.5L443.24 347.55L446.04 347.63L448.83 347.75L451.62 347.9L454.41 348.09L457.19 348.32L459.97 348.59L462.75 348.89L465.53 349.23L468.3 349.6L471.06 350.01L473.83 350.46L476.58 350.94L479.33 351.46L482.08 352.02L484.82 352.62L487.55 353.25L490.27 353.91L492.99 354.61L495.7 355.35L498.4 356.13L501.1 356.94L503.78 357.79L506.46 358.67L508.63 357.09L510.78 355.47L512.91 353.83L515.01 352.16L517.08 350.46L519.13 348.73L521.14 346.97L523.14 345.19L525.1 343.37L527.04 341.53L528.95 339.66L530.83 337.77L532.68 335.85L534.51 333.9L536.3 331.93L538.07 329.93L539.81 327.91L541.51 325.87L543.19 323.8L544.84 321.7L546.46 319.58L548.04 317.44L549.6 315.28L551.12 313.09L552.61 310.88L554.07 308.65L555.5 306.4L556.9 304.13L558.26 301.83L559.6 299.52L560.9 297.18L562.16 294.83L563.39 292.45L564.59 290.06L565.75 287.64L566.88 285.21L567.98 282.76L569.04 280.3L570.07 277.81L571.06 275.31L568.71 274.94L566.35 274.59L564 274.28L561.64 273.99L559.28 273.73L556.92 273.49L554.56 273.29L552.19 273.11L549.83 272.96L547.46 272.84L545.1 272.75L542.73 272.68L540.37 272.64L538 272.63L535.63 272.65L533.27 272.7ZM96.81 272.37L94.48 272.45L92.15 272.55L89.81 272.68L87.48 272.85L85.15 273.03L82.82 273.25L80.5 273.49L78.17 273.76L75.85 274.06L73.53 274.39L71.21 274.74L68.89 275.13L69.88 277.63L70.91 280.12L71.97 282.59L73.06 285.04L74.2 287.48L75.36 289.89L76.56 292.29L77.79 294.67L79.06 297.02L80.36 299.36L81.69 301.68L83.06 303.98L84.45 306.25L85.89 308.51L87.35 310.74L88.84 312.95L90.37 315.14L91.93 317.31L93.51 319.45L95.13 321.57L96.78 323.66L98.46 325.74L100.17 327.78L101.91 329.81L103.68 331.81L105.48 333.78L107.31 335.73L109.16 337.65L111.05 339.54L112.96 341.41L114.9 343.25L116.87 345.07L118.86 346.85L120.89 348.61L122.94 350.34L125.01 352.04L127.11 353.71L129.24 355.36L131.4 356.97L133.58 358.55L136.25 357.67L138.94 356.82L141.63 356.01L144.33 355.24L147.04 354.5L149.76 353.8L152.48 353.13L155.22 352.5L157.95 351.91L160.7 351.36L163.45 350.84L166.21 350.35L168.97 349.91L171.73 349.5L174.51 349.12L177.28 348.79L180.06 348.49L182.84 348.22L185.63 347.99L188.41 347.8L191.21 347.65L194 347.53L196.79 347.45L199.59 347.41L202.38 347.4L205.18 347.43L207.97 347.5L210.77 347.6L213.56 347.74L216.36 347.92L219.15 348.13L221.94 348.38L224.73 348.67L227.52 348.99L230.3 349.36L233.08 349.75L235.86 350.19L238.63 350.66L241.4 351.17L244.16 351.72L242.87 349.3L241.53 346.91L240.15 344.55L238.73 342.23L237.27 339.93L235.77 337.66L234.22 335.42L232.64 333.22L231.02 331.05L229.36 328.91L227.66 326.8L225.92 324.73L224.14 322.69L222.33 320.68L220.49 318.71L218.6 316.78L216.69 314.88L214.73 313.02L212.75 311.2L210.73 309.41L208.67 307.66L206.59 305.95L204.47 304.28L202.33 302.64L200.15 301.05L197.94 299.5L195.7 297.99L193.43 296.52L191.14 295.09L188.81 293.7L186.46 292.35L184.08 291.05L181.68 289.79L179.25 288.58L176.79 287.41L174.31 286.28L171.8 285.2L169.27 284.17L166.72 283.18L164.15 282.24L164.07 282.23L164 282.21L163.92 282.2L163.85 282.18L163.78 282.17L163.7 282.15L163.63 282.13L163.56 282.12L163.48 282.1L163.41 282.08L163.34 282.06L163.26 282.04L163.19 282.02L163.12 282L163.05 281.98L162.97 281.96L162.9 281.94L162.83 281.91L162.76 281.89L162.69 281.87L162.61 281.84L162.54 281.82L162.47 281.79L162.4 281.77L162.33 281.74L162.26 281.71L162.19 281.69L162.12 281.66L162.05 281.63L161.98 281.6L161.91 281.57L161.84 281.54L161.77 281.51L161.7 281.48L161.64 281.45L161.57 281.42L161.5 281.38L161.43 281.35L161.36 281.32L161.3 281.28L159.05 280.6L156.8 279.94L154.54 279.31L152.28 278.7L150.01 278.13L147.74 277.58L145.46 277.05L143.17 276.56L140.88 276.09L138.59 275.65L136.29 275.23L133.99 274.84L131.69 274.48L129.38 274.15L127.06 273.85L124.75 273.57L122.43 273.32L120.11 273.09L117.79 272.9L115.46 272.73L113.13 272.59L110.8 272.47L108.47 272.39L106.14 272.33L103.81 272.3L101.48 272.29L99.15 272.32L96.81 272.37ZM313.7 82.24L310.35 86.09L307.09 89.94L303.93 93.8L300.87 97.65L297.9 101.51L295.02 105.37L292.25 109.23L289.57 113.09L286.98 116.95L284.49 120.81L282.1 124.68L279.8 128.54L277.6 132.41L275.5 136.27L273.49 140.14L271.58 144.01L269.76 147.88L268.05 151.74L266.43 155.61L264.9 159.48L263.47 163.35L262.14 167.21L260.91 171.08L259.77 174.94L258.73 178.81L257.79 182.67L256.94 186.54L256.19 190.4L255.54 194.26L254.98 198.12L254.53 201.98L254.17 205.84L253.9 209.7L253.74 213.55L253.67 217.41L253.7 221.26L253.83 225.11L254.05 228.95L254.47 233.71L255.03 238.41L255.72 243.03L256.54 247.58L257.49 252.06L258.55 256.46L259.73 260.79L261.01 265.05L262.38 269.22L263.85 273.32L265.41 277.34L267.05 281.28L268.76 285.14L270.53 288.91L272.37 292.6L274.26 296.2L276.2 299.72L278.18 303.15L280.2 306.49L282.25 309.74L284.32 312.9L286.41 315.97L288.51 318.94L290.61 321.83L292.72 324.61L294.81 327.3L296.89 329.89L298.95 332.38L300.98 334.77L302.98 337.06L304.94 339.25L306.86 341.33L308.72 343.31L310.53 345.18L312.27 346.95L313.94 348.6L315.53 350.15L317.04 351.59L318.46 352.92L319.79 354.13L323.44 350.7L326.99 347.27L330.45 343.82L333.81 340.37L337.08 336.91L340.26 333.44L343.34 329.96L346.33 326.47L349.22 322.98L352.02 319.48L354.72 315.97L357.33 312.45L359.85 308.92L362.27 305.39L364.59 301.85L366.82 298.31L368.96 294.75L371 291.19L372.95 287.62L374.8 284.05L376.55 280.47L378.21 276.88L379.78 273.29L381.25 269.69L382.62 266.08L383.9 262.47L385.09 258.85L386.18 255.23L387.17 251.6L388.07 247.97L388.87 244.33L389.57 240.68L390.18 237.03L390.7 233.38L391.11 229.72L391.44 226.05L391.66 222.38L391.79 218.71L391.83 215.03L391.76 211.35L391.52 206.31L391.11 201.34L390.53 196.43L389.79 191.58L388.91 186.8L387.88 182.09L386.71 177.44L385.42 172.87L384 168.37L382.47 163.94L380.84 159.59L379.11 155.32L377.29 151.12L375.38 147.01L373.4 142.98L371.34 139.04L369.23 135.18L367.06 131.41L364.85 127.73L362.59 124.15L360.31 120.66L358 117.26L355.67 113.96L353.34 110.76L351 107.67L348.66 104.67L346.34 101.78L344.04 99L341.77 96.32L339.53 93.76L337.34 91.3L335.19 88.96L333.1 86.74L331.07 84.63L329.12 82.64L327.25 80.77L325.46 79.03L323.77 77.41L322.18 75.91L320.69 74.55L317.15 78.39L313.7 82.24Z" id="b5vVMhcLaX"></path><linearGradient id="gradientbwiizL3Xl" gradientUnits="userSpaceOnUse" x1="-20.27" y1="272.58" x2="628.72" y2="272.58"><stop style="stop-color: #ef7ec0;stop-opacity: 1" offset="0%"></stop><stop style="stop-color: #eb66ad;stop-opacity: 1" offset="29.299999999999997%"></stop><stop style="stop-color: #e2297c;stop-opacity: 1" offset="90.9%"></stop><stop style="stop-color: #e11f74;stop-opacity: 1" offset="100%"></stop></linearGradient><path d="M374.06 495.89L374.34 495.9L374.63 495.93L374.92 495.96L375.2 496L375.49 496.05L375.77 496.11L376.06 496.18L376.34 496.25L376.62 496.33L376.9 496.42L377.17 496.51L377.44 496.61L377.71 496.72L377.97 496.84L378.23 496.96L378.48 497.09L378.73 497.23L378.98 497.37L379.22 497.52L379.46 497.67L379.69 497.83L379.92 498L380.14 498.17L380.36 498.35L380.57 498.53L380.78 498.72L380.99 498.92L381.19 499.12L381.38 499.33L381.57 499.54L381.75 499.75L381.93 499.97L382.1 500.2L382.26 500.43L382.42 500.66L382.57 500.9L382.72 501.15L382.86 501.4L383 501.65L383.12 501.9L383.24 502.16L383.36 502.43L383.46 502.7L383.56 502.97L383.66 503.24L383.74 503.52L383.82 503.8L383.89 504.09L383.95 504.37L384.01 504.65L384.06 504.94L384.09 505.22L384.12 505.51L384.15 505.8L384.16 506.08L384.17 506.37L384.17 506.65L384.16 506.93L384.15 507.22L384.12 507.5L384.09 507.78L384.06 508.06L384.01 508.34L383.96 508.62L383.9 508.9L383.83 509.17L383.76 509.44L383.68 509.71L383.59 509.98L383.49 510.25L383.39 510.51L383.28 510.77L383.16 511.03L383.04 511.28L382.91 511.53L382.77 511.78L382.63 512.03L382.48 512.27L382.32 512.51L382.15 512.74L381.98 512.97L381.81 513.2L381.62 513.42L381.43 513.64L381.23 513.85L381.03 514.06L380.82 514.26L379.67 515.54L378.49 516.8L377.29 518.03L376.06 519.24L374.82 520.42L373.55 521.56L372.26 522.69L370.95 523.78L369.62 524.85L368.27 525.88L366.89 526.89L365.51 527.87L364.1 528.82L362.67 529.74L361.23 530.63L359.77 531.49L358.29 532.32L356.8 533.12L355.29 533.89L353.76 534.63L352.23 535.34L350.67 536.02L349.11 536.66L347.53 537.28L345.93 537.86L344.33 538.41L342.71 538.93L341.08 539.41L339.45 539.87L337.8 540.28L336.14 540.67L334.47 541.02L332.79 541.34L331.11 541.63L329.41 541.88L327.71 542.09L326.01 542.27L324.29 542.42L322.57 542.53L320.85 542.61L319.31 542.61L317.58 542.47L315.86 542.3L314.14 542.1L312.43 541.87L310.72 541.61L309.02 541.31L307.33 540.99L305.65 540.63L303.98 540.24L302.31 539.82L300.66 539.37L299.01 538.89L297.38 538.38L295.75 537.84L294.14 537.28L292.54 536.68L290.95 536.05L289.37 535.39L287.8 534.71L286.25 533.99L284.71 533.25L283.19 532.48L281.68 531.68L280.18 530.85L278.7 529.99L277.24 529.11L275.79 528.2L274.35 527.26L272.94 526.29L271.54 525.3L270.16 524.28L268.79 523.24L267.45 522.17L266.12 521.07L264.81 519.95L263.53 518.8L262.26 517.62L261.01 516.42L259.78 515.2L258.58 513.95L258.29 513.62L258.02 513.28L257.76 512.93L257.52 512.58L257.3 512.21L257.09 511.85L256.9 511.47L256.72 511.09L256.56 510.71L256.42 510.32L256.29 509.93L256.18 509.53L256.08 509.13L256 508.73L255.94 508.32L255.89 507.92L255.85 507.51L255.83 507.1L255.83 506.69L255.84 506.29L255.87 505.88L255.91 505.47L255.97 505.07L256.05 504.67L256.14 504.27L256.24 503.87L256.36 503.48L256.5 503.09L256.65 502.71L256.82 502.33L257 501.96L257.2 501.59L257.41 501.23L257.64 500.88L257.88 500.53L258.14 500.19L258.41 499.86L258.7 499.54L259.01 499.23L259.33 498.93L259.66 498.64L260 498.37L260.34 498.12L260.7 497.88L261.06 497.65L261.43 497.45L261.8 497.25L262.18 497.08L262.57 496.92L262.96 496.77L263.35 496.65L263.75 496.53L264.15 496.44L264.55 496.35L264.95 496.29L265.36 496.24L265.77 496.2L266.18 496.19L266.58 496.18L266.99 496.19L267.4 496.22L267.8 496.27L268.21 496.33L268.61 496.4L269.01 496.49L269.41 496.6L269.8 496.72L270.19 496.85L270.57 497L270.95 497.17L271.32 497.35L271.69 497.55L272.05 497.76L272.4 497.99L272.75 498.24L273.09 498.49L273.41 498.77L273.73 499.06L274.05 499.36L274.35 499.68L275.26 500.61L276.19 501.52L277.13 502.41L278.09 503.29L279.06 504.15L280.04 504.98L281.04 505.8L282.06 506.6L283.08 507.38L284.12 508.14L285.17 508.88L286.24 509.61L287.31 510.31L288.4 510.99L289.5 511.65L290.61 512.3L291.74 512.92L292.87 513.52L294.01 514.1L295.17 514.66L296.33 515.21L297.5 515.72L298.69 516.22L299.88 516.7L301.08 517.16L302.29 517.59L303.5 518L304.73 518.4L305.96 518.76L307.2 519.11L308.45 519.44L309.7 519.74L310.96 520.02L312.22 520.28L313.5 520.52L314.77 520.73L316.06 520.92L317.34 521.09L318.64 521.23L319.93 521.35L321.26 521.3L322.58 521.22L323.89 521.12L325.2 520.98L326.5 520.82L327.8 520.63L329.09 520.42L330.38 520.18L331.66 519.91L332.93 519.61L334.19 519.29L335.44 518.94L336.69 518.57L337.93 518.17L339.16 517.74L340.37 517.29L341.58 516.82L342.78 516.32L343.96 515.79L345.14 515.24L346.3 514.67L347.45 514.07L348.59 513.45L349.72 512.8L350.83 512.13L351.93 511.44L353.01 510.72L354.08 509.98L355.14 509.22L356.18 508.43L357.2 507.63L358.21 506.8L359.2 505.94L360.18 505.07L361.14 504.17L362.08 503.26L363 502.32L363.9 501.36L364.79 500.38L365.65 499.37L365.85 499.16L366.06 498.95L366.27 498.75L366.48 498.56L366.7 498.37L366.92 498.19L367.15 498.01L367.38 497.84L367.61 497.68L367.85 497.52L368.09 497.37L368.34 497.23L368.59 497.1L368.84 496.97L369.1 496.85L369.36 496.73L369.62 496.62L369.88 496.52L370.15 496.43L370.42 496.34L370.69 496.26L370.96 496.19L371.24 496.13L371.51 496.07L371.79 496.02L372.07 495.98L372.35 495.94L372.63 495.91L372.92 495.89L373.2 495.88L373.49 495.87L373.77 495.88L374.06 495.89Z" id="a34T4ej9Oa"></path><linearGradient id="gradientcl0dXmMG" gradientUnits="userSpaceOnUse" x1="-20.63" y1="519.4" x2="628.35" y2="519.4"><stop style="stop-color: #ef7ec0;stop-opacity: 1" offset="0%"></stop><stop style="stop-color: #eb66ad;stop-opacity: 1" offset="29.299999999999997%"></stop><stop style="stop-color: #e2297c;stop-opacity: 1" offset="90.9%"></stop><stop style="stop-color: #e11f74;stop-opacity: 1" offset="100%"></stop></linearGradient></defs><g><g><g><use xlink:href="#b5vVMhcLaX" opacity="1" fill="url(#gradientbwiizL3Xl)"></use><g><use xlink:href="#b5vVMhcLaX" opacity="1" fill-opacity="0" stroke="#000000" stroke-width="1" stroke-opacity="0"></use></g></g><g><use xlink:href="#a34T4ej9Oa" opacity="1" fill="url(#gradientcl0dXmMG)"></use><g><use xlink:href="#a34T4ej9Oa" opacity="1" fill-opacity="0" stroke="#000000" stroke-width="1" stroke-opacity="0"></use></g></g></g></g></svg>