<svg height="479pt" viewBox="-8 0 479 479.99704" width="479pt" xmlns="http://www.w3.org/2000/svg" xmlns:xlink="http://www.w3.org/1999/xlink"><linearGradient id="a"><stop offset="0" stop-color="#ef7ec0"/><stop offset=".293" stop-color="#eb66ad"/><stop offset=".909" stop-color="#e2297c"/><stop offset="1" stop-color="#e11f74"/></linearGradient><linearGradient id="b" gradientUnits="userSpaceOnUse" x1="-23.494142" x2="464.769858" xlink:href="#a" y1="168.005044" y2="168.005044"/><linearGradient id="c" gradientUnits="userSpaceOnUse" x1="-23.494142" x2="464.769858" xlink:href="#a" y1="404.405044" y2="404.405044"/><linearGradient id="d" gradientUnits="userSpaceOnUse" x1="-23.494142" x2="464.769858" xlink:href="#a" y1="385.461044" y2="385.461044"/><linearGradient id="e" gradientUnits="userSpaceOnUse" x1="-23.494142" x2="464.769858" xlink:href="#a" y1="435.925044" y2="435.925044"/><path d="m390.640625 239.476562c22.496094-19.457031 39.5-44.464843 49.320313-72.535156.828124-2.121094.714843-4.496094-.316407-6.527344s-2.878906-3.527343-5.082031-4.113281c-24.625-5.617187-50.1875-5.71875-74.855469-.304687 5.851563-28.128906 6.074219-57.140625.65625-85.359375-.402343-2.292969-1.78125-4.296875-3.777343-5.488281-1.996094-1.195313-4.414063-1.460938-6.625-.726563-18.449219 6.871094-35.929688 16.109375-52 27.488281-14.351563-53.472656-58.34375-88.511718-60.535157-90.21875-3.203125-2.5-7.773437-2.199218-10.625.699219-29.664062 30.183594-48.4375 61.015625-56.160156 92.09375-17.042969-12.546875-35.746094-22.664063-55.574219-30.0625-2.207031-.734375-4.628906-.46875-6.625.726563-1.996094 1.191406-3.375 3.195312-3.777344 5.488281-5.433593 28.300781-5.191406 57.394531.714844 85.601562-24.679687-5.359375-50.21875-5.339843-74.890625.046875-2.199219.585938-4.046875 2.078125-5.078125 4.113282-1.03125 2.03125-1.148437 4.40625-.320312 6.527343 9.832031 28.066407 26.863281 53.0625 49.382812 72.488281-26.535156 11.585938-50.816406 27.761719-71.734375 47.78125-1.640625 1.703126-2.445312 4.042969-2.195312 6.394532.25 2.351562 1.523437 4.46875 3.484375 5.792968 36.125 24.367188 71.71875 36.613282 106.191406 36.613282 9.277344.003906 18.535156-.898438 27.640625-2.6875 37.21875-8.230469 70.566406-28.785156 94.644531-58.335938 24.078125 29.558594 57.429688 50.117188 94.648438 58.351563 9.105468 1.789062 18.363281 2.683593 27.640625 2.671875 34.464843 0 70.066406-12.261719 106.191406-36.640625 1.960937-1.320313 3.234375-3.441407 3.484375-5.789063.25-2.351562-.554688-4.691406-2.195312-6.394531-20.890626-19.980469-45.136719-36.128906-71.632813-47.695313zm-39.855469-64.367187h.128906c22.769532-7.195313 46.910157-8.925781 70.472657-5.054687-9.753907 25.1875-26.644531 46.984374-48.601563 62.71875-26.789062-9.050782-55.496094-10.832032-83.199218-5.167969 12.898437-24.710938 34.8125-43.511719 61.199218-52.496094zm-307.199218-5.191406c23.214843-3.96875 47.039062-2.382813 69.519531 4.632812.675781.34375 1.398437.585938 2.144531.71875 25.941406 9.207031 47.445312 27.878907 60.199219 52.273438-27.699219-5.671875-56.410157-3.898438-83.199219 5.140625-21.992188-15.730469-38.910156-37.546875-48.664062-62.765625zm125.265624 135.949219c-45.691406 22.929687-95.234374 18.128906-147.402343-14.269532 17.753906-15.597656 37.792969-28.378906 59.425781-37.898437 49.640625-21.292969 96.75-17.925781 140.136719 10.011719-14.34375 17.449218-32.09375 31.792968-52.160157 42.15625zm27.308594-72.335938c-13.027344-33.203125-39.507812-59.335938-72.878906-71.933594-7.015625-25.523437-8.515625-52.25-4.398438-78.402344 17.339844 7.617188 33.660157 17.371094 48.582032 29.035157-.914063 8.011719-1.09375 16.089843-.535156 24.132812 3.847656 53.984375 39.863281 91.609375 54.574218 104.839844.105469 1.480469.25 2.976563.386719 4.472656-8.214844-4.773437-16.824219-8.835937-25.730469-12.144531zm36.1875-4.175781c-12.800781-11.597657-46.027344-46.0625-49.457031-94.175781-2.746094-38.582032 14.109375-77.597657 50.136719-116.167969 14.300781 13.066406 51.941406 52.144531 53.46875 102.921875 1.113281 36.96875-17.101563 73.085937-54.148438 107.421875zm11.199219 11.402343c40.351563-37.519531 60.214844-77.601562 58.957031-119.304687-.125-4.183594-.484375-8.28125-1.007812-12.304687 13.84375-10.308594 28.808594-19.011719 44.609375-25.953126 4.117187 26.148438 2.625 52.875-4.375 78.402344-33.355469 12.671875-59.832031 38.808594-72.929688 72-8.898437 3.289063-17.5 7.335938-25.710937 12.085938.175781-1.6875.328125-3.285156.441406-4.886719zm52.632813 65.109376c-20.070313-10.363282-37.820313-24.707032-52.160157-42.15625 43.390625-27.9375 90.503907-31.3125 140.132813-10.011719 21.632812 9.519531 41.671875 22.300781 59.425781 37.898437-52.175781 32.398438-101.71875 37.199219-147.417969 14.269532zm0 0" fill="url(#b)"/><path d="m118.464844 370.652344c-2.949219-3.289063-8.007813-3.570313-11.300782-.621094-3.289062 2.949219-3.566406 8.011719-.617187 11.300781 2.109375 2.351563 52.480469 57.753907 124.574219 59.441407h3.351562c43.503906 0 85.113282-19.914063 123.738282-59.199219 2.878906-3.183594 2.734374-8.070313-.328126-11.078125-3.0625-3.007813-7.953124-3.0625-11.082031-.125-36.351562 36.984375-75.246093 55.328125-115.199219 54.402344-65.078124-1.449219-112.695312-53.578126-113.136718-54.121094zm0 0" fill="url(#c)"/><path d="m232.265625 402.917969h1.152344c17.335937-.585938 33.664062-8.304688 45.121093-21.328125 2.136719-2.011719 3.003907-5.03125 2.257813-7.867188-.75-2.839844-2.988281-5.042968-5.839844-5.738281-2.855469-.695313-5.855469.230469-7.828125 2.40625-8.589844 10.15625-21.101562 16.171875-34.398437 16.535156-13.03125-1.09375-25.222657-6.886719-34.296875-16.304687-2.964844-3.277344-8.023438-3.527344-11.300782-.5625-3.273437 2.964844-3.527343 8.023437-.5625 11.296875 11.988282 12.664062 28.300782 20.359375 45.695313 21.5625zm0 0" fill="url(#d)"/><path d="m386.90625 394.269531c-55.089844 53.664063-168 125.375-305.503906 2.671875-4.167969-3.726562-7.464844-6.6875-12.496094-4.128906-2.679688 1.328125-4.394531 4.039062-4.445312 7.027344-.054688 2.992187 1.566406 5.761718 4.195312 7.179687l2.089844 1.859375c30.664062 27.359375 91.40625 71.117188 166.097656 71.117188 49.261719 0 104.519531-19.007813 161.261719-74.269532 3.164062-3.09375 3.222656-8.167968.128906-11.328124-3.09375-3.164063-8.164063-3.222657-11.328125-.128907zm0 0" fill="url(#e)"/></svg>