<svg viewBox="0 -4 511.99901 511" xmlns="http://www.w3.org/2000/svg"><path d="m356.976562 194.730469.328126.003906c4.410156.078125 8.785156.289063 13.644531.539063l.777343.039062c4.703126.226562 9.5625.464844 14.300782.503906l.496094.003906c2.984374 0 5.945312-.25 9.082031-.515624l.195312-.015626c3.136719-.265624 6.378907-.539062 9.597657-.539062 3.296874 0 6.203124.289062 8.890624.886719 4.269532.945312 8.324219 2.605469 12.050782 4.933593l2.726562 1.707032.324219-3.203125c1.371094-13.703125-.742187-24.148438-6.460937-31.933594-6.050782-8.238281-16.308594-13.15625-27.445313-13.15625-.515625 0-1.03125.011719-1.550781.035156-10.5.449219-21.007813 5.179688-29.582032 13.316407-6.597656 6.257812-12.0625 14.507812-16.238281 24.519531l-1.140625 2.734375 2.960938.035156c2.339844.03125 4.675781.066406 7.042968.105469zm0 0" fill="#cbe580"/><path d="m330.660156 361.339844c-.75-.046875-1.511718-.074219-2.265625-.074219-3.457031 0-6.941406.53125-10.082031 1.539063-.90625.292968-1.949219.898437-2.992188 1.503906-1.300781.761718-2.777343 1.625-4.28125 1.996094-.835937.199218-1.574218.296874-2.257812.296874-1.4375 0-2.453125-.441406-3.746094-1.003906-.4375-.1875-.925781-.394531-1.515625-.625-3.085937-1.195312-6.398437-1.796875-9.839843-1.796875-6.652344 0-13.222657 2.34375-18.015626 6.425781-.371093.3125-.839843.488282-1.320312.488282-.488281 0-.960938-.175782-1.328125-.496094-6.351563-5.480469-15.171875-8.625-24.199219-8.625-6.804687 0-13.273437 1.738281-18.703125 5.027344-6.335937 3.839844-12.445312 11.460937-10.894531 19.121094 1.230469 6.027343 6.859375 11.144531 16.726562 15.210937 15.578126 6.414063 32.730469 9.664063 50.980469 9.664063 12.15625 0 24.46875-1.480469 36.589844-4.402344 10.753906-2.589844 24.136719-10.398438 27.757813-19.769532 1.9375-4.988281 1.121093-10.167968-2.417969-15.394531-3.503907-5.167969-10.304688-8.566406-18.195313-9.085937zm0 0" fill="#4996f2"/><path d="m449.652344 250.222656-.140625 2.6875 21.925781-.15625.238281-.0625c.179688-.046875.347657-.070312.511719-.070312.070312 0 .140625.003906.214844.015625l.019531.003906c.113281.027344.226563.054687.339844.070313l.164062.027343.164063-.003906c2.613281-.03125 5.332031-.167969 7.324218-1.492187 2.980469-1.972657 3.90625-6.214844 4.597657-10.390626.621093-3.734374 1.328125-7.964843.722656-11.859374-.238281-1.496094-1.335937-6.542969-5.542969-8.605469-1.949218-.945313-4.359375-1.066407-6.242187-1.066407-.699219 0-1.394531.015626-2.0625.035157l-28.582031.746093 1.152343 2.707032c3.59375 8.433594 5.4375 18.1875 5.195313 27.414062zm0 0" fill="#5bd0fc"/><path d="m255.273438 258.421875.15625-2.3125-2.308594.183594c-12.054688.949219-24.164063 1.433593-35.992188 1.433593-29.019531 0-58.183594-2.808593-86.6875-8.34375l-4.976562-.96875 2.976562 4.105469c.371094.515625.640625.929688.839844 1.3125 1.734375 3.269531 1.605469 7.511719-.335938 11.066407l-.953124 1.746093 1.742187.960938c.328125.183593.652344.375.96875.585937 3.507813 2.328125 5.722656 5.84375 6.074219 9.648438.355468 3.816406-1.171875 7.679687-4.191406 10.601562-.644532.628906-1.34375 1.199219-2.082032 1.695313l-1.921875 1.296875 1.5625 1.710937c3.601563 3.945313 5.296875 9.3125 4.539063 14.355469-.683594 4.582031-3.367188 8.808594-7.359375 11.597656l-2.371094 1.65625 2.390625 1.632813c3.609375 2.46875 8.160156 6.835937 9.316406 13.605469.351563 2.0625.234375 4.3125-.335937 6.511718l-.363281 1.40625 1.222656.78125c23.398437 14.921875 50.363281 24.121094 77.984375 26.609375.316406.023438.617187.136719.925781.335938l1.628906 1.050781 1.101563-1.59375c2.3125-3.335938 5.570312-6.386719 9.171875-8.578125 6.125-3.710937 13.34375-5.671875 20.875-5.671875 8.855468 0 17.503906 2.746094 24.351562 7.730469l1.136719.828125 1.164063-.789063c5.207031-3.53125 11.679687-5.476562 18.230468-5.476562 3.941406 0 7.71875.6875 11.242188 2.050781.554687.210938 1.019531.414062 1.441406.597656l.226562.097656c.96875.421876 1.503907.652344 2.238282.652344.441406 0 .808594-.089844 1.164062-.179687.847656-.199219 1.773438-.71875 3.085938-1.488281l.105468-.0625c1.089844-.636719 2.445313-1.429688 3.835938-1.875 3.515625-1.132813 7.425781-1.730469 11.304688-1.730469.847656 0 1.699218.027343 2.539062.082031 9.261719.621094 17.023438 4.582031 21.289062 10.871094 1.390626 2.050781 2.453126 4.179687 3.152344 6.324218l.441406 1.351563 1.417969.027344c.949219.019531 1.898438.03125 2.847657.03125 23.90625 0 47.488281-6.304688 68.203124-18.226563 9.59375-5.515625 18.523438-12.222656 26.539063-19.933594l.410156-.394531.140625-.546875c.027344-.113281.046875-.21875.054688-.308594 6.046875-25.339843 10.800781-51.375 14.132812-77.375l.289063-2.269531-20.875.144531-.363281 1.523438c-1.535157 6.378906-4.742188 10.894531-9.269532 13.0625-1.917968.917969-3.96875 1.382812-6.097656 1.382812-7.691406 0-14.859375-5.917968-18.546875-11.78125-1.054687-1.683593-2.039063-3.527343-3.101563-5.800781l-3.8125.894531c.46875 18.652344-.613281 37.464844-3.210937 55.910157-.851563 6.03125-1.945313 12.386719-5.0625 17.964843-3.585937 6.410157-9.636719 10.617188-15.792969 10.976563-.300781.019531-.613281.027344-.921875.027344-4.464843 0-9.597656-1.847657-12.773437-4.59375l-1.640625-1.417969-1.28125 1.75c-1.765625 2.410156-3.945313 4.257812-6.484375 5.484375-2.21875 1.082031-4.792969 1.65625-7.441406 1.65625-3.984376 0-8.136719-1.300781-11.691407-3.664063-2.945312-1.957031-5.640625-4.703124-8.007812-8.15625l-1.964844-2.867187-1.492187 3.140625c-1.738282 3.667969-4.132813 6.25-7.328126 7.890625-2.097656 1.082031-4.472656 1.628906-7.054687 1.628906-3.746094 0-7.570313-1.15625-11.058594-3.339843-4.074219-2.539063-7.285156-6.113282-9.628906-8.945313l-2.054687-2.484375-1.3125 2.945312c-1.527344 3.433594-3.65625 5.867188-6.5 7.441407-1.960938 1.085937-4.125 1.632812-6.433594 1.632812-4.898438 0-10.285156-2.589843-13.710938-6.601562-4.601562-5.371094-6.328125-12.351563-7.507812-19.097657-2.867188-16.273437-3.570313-34.304687-2.160156-55.117187zm0 0" fill="#5bd0fc"/><path d="m422.476562 472.203125c4.851563-5.929687 6.734376-14.007813 8.390626-21.132813l19.277343-82.671874-4.015625 2.351562c-5.03125 2.949219-10.21875 5.589844-15.410156 7.855469-20.855469 9.101562-45.097656 13.910156-70.109375 13.910156-2.179687 0-4.480469-.046875-7.246094-.148437l-1.035156-.035157-.628906.820313c-6.800781 8.898437-18.921875 14.390625-27.238281 16.390625-12.417969 2.988281-25.042969 4.503906-37.53125 4.503906-18.789063 0-36.460938-3.351563-52.527344-9.96875-9.363282-3.851563-15.425782-8.78125-18.023438-14.648437l-.515625-1.164063-1.269531-.027344c-26.050781-.582031-51.921875-7.425781-74.824219-19.789062l-2.375-1.28125-.535156 2.644531c-.78125 3.863281-3.25 7.605469-6.769531 10.273438-1.601563 1.21875-3.414063 2.265624-5.539063 3.203124l-2.730469 1.207032 2.15625 2.066406c.652344.625 1.261719 1.308594 1.808594 2.03125 2.527344 3.34375 3.652344 7.3125 3.167969 11.175781l-.066406.546875.21875.503906c4.371093 10 6.1875 20.808594 7.941406 31.261719l.027344.160157c.644531 3.816406 1.308593 7.757812 2.085937 11.566406 3.664063 18.011718 10.09375 30.164062 19.648438 37.144531 9.621094 7.03125 22.140625 8.699219 35.199218 9.90625 29.886719 2.765625 58.605469 4.167969 85.359376 4.167969 40.6875 0 77.648437-3.085938 112.996093-9.4375 10.855469-1.957032 23.03125-4.761719 30.113281-13.386719zm0 0" fill="#5bd0fc"/><path d="m108.457031 228.640625 1.691407.59375c2.253906.785156 4.117187 1.789063 5.703124 3.0625 2.746094 2.195313 4.605469 5.71875 4.867188 9.210937v1.703126l1.582031.339843c31.171875 6.710938 63.101563 10.109375 94.898438 10.109375 12.25 0 24.660156-.507812 36.882812-1.511718l1.679688-.136719.148437-1.675781c.535156-5.917969 1.242188-12.269532 2.164063-19.414063l.292969-2.292969-2.308594.035156c-5.1875.082032-9.4375.121094-13.367188.121094-43.816406 0-87.964844-3.644531-131.222656-10.832031l-2.667969-.445313.355469 2.683594c.308594 2.28125.207031 4.535156-.292969 6.703125zm0 0" fill="#5bd0fc"/><path d="m345.609375 194.566406 1.378906.019532.507813-1.28125c4.257812-10.6875 9.921875-19.429688 16.839844-25.988282 8.582031-8.148437 19.09375-12.882812 29.597656-13.332031.527344-.023437 1.054687-.035156 1.578125-.035156 10.96875 0 21.484375 5.046875 27.445312 13.167969 6.015625 8.195312 8.050781 19.371093 6.226563 34.164062l-.136719 1.117188.878906.695312c4.023438 3.1875 7.574219 7.230469 10.550781 12.027344l.589844.945312h1.148438l17.976562-.472656-9.398437-58.867188c-.976563-6.035156-1.96875-10.9375-5.097657-14.53125-4.917968-5.664062-13.519531-6.261718-21.90625-6.390624l-61.488281-.96875c-.847656-.015626-1.691406-.023438-2.523437-.023438-6.304688 0-12.75.527344-17.207032 4.339844-4.105468 3.503906-5.835937 9.242187-7.382812 15.3125-3.070312 12.160156-5.96875 24.785156-8.617188 37.523437l-.496093 2.390625 2.441406.015625c5.613281.042969 11.308594.089844 17.09375.171875zm0 0" fill="#5fc980"/><g fill="#ffda8e"><path d="m421.230469 115.117188-1.710938.007812c-.871093 0-1.75-.007812-2.628906-.015625l-3.605469-.03125-1.75-.03125c-2.960937-.054687-5.648437-.128906-8.214844-.21875l-2.304687-.085937.246094 2.296874c.425781 3.996094.296875 8.042969-.382813 12.027344l-.394531 2.300782 13.292969.21875.207031-1.800782c.058594-.5.105469-1 .148437-1.5-.03125.371094-.039062.746094-.082031 1.117188l-.234375 2.179687 11.359375.179688-.984375-2.726563c-.089844-.246094-.132812-.429687-.144531-.589844l-.953125-13.328124zm-7.734375 1.773437.105468.566406c.066407.359375.101563.722657.160157 1.082031-.078125-.496093-.167969-.992187-.265625-1.484374 0 0 0-.070313 0-.164063zm.308594 1.953125c.132812.898438.242187 1.796875.316406 2.699219-.074219-.90625-.179688-1.804688-.316406-2.699219zm.347656 9.132812c.066406-.945312.105468-1.890624.109375-2.832031-.003907.945313-.039063 1.886719-.109375 2.832031zm.007812-5.867187c.0625.882813.097656 1.761719.101563 2.644531-.003907-.882812-.039063-1.765625-.101563-2.644531zm0 0"/><path d="m419.378906 115.078125 3.714844-.007813-2.191406-30.871093c-.140625-2.035157-.332032-3.808594-1.253906-4.945313-1.320313-1.640625-4.113282-1.921875-6.929688-1.976562l-35.003906-.878906c-.394532-.011719-.8125-.023438-1.238282-.023438-1.34375 0-2.875.09375-4.03125.765625-2.347656 1.378906-2.878906 4.890625-3.101562 8.476563l-1.691406 26.496093 1.894531.210938c16.472656 1.828125 33.238281 2.753906 49.832031 2.753906zm0 0"/><path d="m400.726562 129.710938c.800782-4.339844.957032-8.929688.449219-13.269532l-.199219-1.683594-1.695312-.078124c-2.617188-.121094-5.371094-.273438-8.414062-.46875l-2.105469-.136719-.183594 17.109375 11.839844.1875zm0 0"/><path d="m388.730469 116.15625v-2.085938l-1.863281-.128906c-2.289063-.160156-4.574219-.335937-6.863282-.539062l-2.097656-.179688-.625 17.777344 11.253906.191406.171875-14.925781zm0 0"/><path d="m377.875 113.203125-1.875-.179687c-2.09375-.199219-4.183594-.417969-6.273438-.644532l-2.078124-.230468-1.199219 18.683593 10.796875.175781zm0 0"/><path d="m280.410156 16.203125-.375-.367187h-1.515625l.5-.410157-3.140625-1.257812c-7.105468-2.84375-14.605468-4.191407-20.34375-5.050781-11.359375-1.714844-22.941406-2.550782-35.40625-2.550782-24.191406 0-51.082031 3.261719-82.203125 9.972656-3.195312.691407-6.585937 1.726563-7.515625 4.167969-.539062 1.402344-.203125 3.183594.269532 5.257813l1.203124 5.265625 1.875-.332031c20.667969-3.675782 41.792969-5.542969 62.789063-5.542969 8.222656 0 16.542969.289062 24.738281.859375 1.078125.070312 2.152344.152344 3.234375.230468l1.703125.125c5.367188.414063 10.917969.84375 16.535156.84375 3.28125 0 6.238282-.148437 9.042969-.445312 6.917969-.742188 16.800781-2.976562 24.605469-9.394531l1.039062-.855469c-7.910156 7.054688-18.273437 9.492188-25.640624 10.28125-2.804688.300781-5.757813.445312-9.027344.445312-5.554688 0-11.148438-.425781-16.5625-.839843l-1.5625-.117188c-1.128906-.085937-2.257813-.167969-3.375-.246093-8.1875-.566407-16.503906-.851563-24.722656-.851563-20.921876 0-41.984376 1.847656-62.59375 5.5l-2.074219.367187 7.179687 31.296876c1.007813 4.394531 1.976563 7.945312 4.472656 10.335937 2.875 2.726563 7.191407 3.363281 12.128907 3.859375 15.832031 1.589844 32.203125 3.234375 48.414062 3.234375 13.988281 0 26.277344-1.230469 37.574219-3.765625l2.214844-.496094-.773438-2.132812c-3.019531-8.347656-1.9375-18.050782 2.824219-25.316406 5.070313-7.742188 14.421875-12.742188 23.820313-12.742188 1.074218 0 2.152343.066406 3.199218.191406 1.386719.171875 2.933594.476563 4.574219.800782 4.238281.824218 6.949219 1.179687 9.058594 1.179687 1.570312 0 6.351562 0 7.859375-4.976563 2.234375-7.40625-9.804688-14.351562-14.023438-16.523437zm0 0"/><path d="m256.839844 45.125-1.261719-1.09375-1.300781 1.042969c-1.429688 1.148437-2.726563 2.457031-3.859375 3.894531l-.894531 1.136719.796874 1.203125c9.863282 14.878906 15.867188 32.136718 17.355469 49.90625l.128907 1.519531c.285156 3.730469.578124 7.585937 2.238281 10.734375 1.214843 2.300781 3.925781 4.625 6.757812 4.625.605469 0 1.1875-.109375 1.722657-.324219 3.375-1.347656 4.382812-6.191406 4.632812-10.023437 1.445312-23.316406-8.640625-47.3125-26.316406-62.621094zm0 0"/><path d="m197.539062 151.945312c-.878906-.082031-1.773437-.121093-2.65625-.121093-9.894531 0-24.832031 5.925781-34.359374 22.621093-7.667969 13.429688-9.921876 29.632813-11.734376 42.65625l-.28125 2.023438 2.027344.238281c26.476563 3.082031 53.347656 4.855469 79.871094 5.261719l1.851562.03125.171876-1.84375c1.335937-14.179688 1.902343-29.1875-2.9375-42.84375-4.570313-12.941406-16.226563-26.625-31.953126-28.023438zm0 0"/></g><path d="m265.464844 248.175781c1.710937 1.871094 2.421875 4.515625 2.953125 6.847657 3.441406 15.046874 3.957031 31.070312 1.496093 46.339843-.421874 2.589844-.945312 5.3125-2.3125 7.679688-1.09375 1.914062-2.683593 3.359375-4.472656 4.074219l-1.550781.621093.332031 1.632813c.925782 4.566406 2.453125 10.351562 6.109375 14.625 2.691407 3.136718 6.855469 5.160156 10.617188 5.160156 1.636719 0 3.140625-.375 4.46875-1.109375 5.042969-2.785156 6.515625-9.636719 7.359375-16.617187l.390625-3.179688.035156-.363281-.082031-.34375.171875-.324219 7.804687-64.238281c.121094-1.019531.980469-1.785157 2-1.785157.082032 0 .167969.003907.25.015626.539063.066406 1.023438.339843 1.359375.765624.335938.429688.484375.960938.417969 1.5l-1.152344 9.523438 1.402344.582031c1.28125.535157 2.457031 1.613281 3.148438 2.894531 1.164062 2.15625 1.296874 4.722657 1.414062 7.042969.421875 8.316407.855469 16.917969-1.378906 25.125-1.816406 6.726563-5.457032 12.421875-10.25 16.035157l-.679688.511718-.8125 6.726563c-.136718 1.148437-.304687 2.292969-.480468 3.433593l-.195313 1.25 1.050781.710938c.230469.15625.378906.285156.480469.414062 3.347656 4.246094 6.8125 8.636719 11.371094 11.476563 2.800781 1.753906 5.972656 2.71875 8.925781 2.71875 1.921875 0 3.667969-.394531 5.1875-1.175781 6.359375-3.265625 7.894531-12.035156 8.558594-20.1875l5.660156-69.488282c.085938-1.046874.980469-1.863281 2.039062-1.863281.054688 0 .109376 0 .15625.003907 1.113282.089843 1.949219 1.074218 1.859376 2.191406l-.585938 7.0625 1.410156.535156c2.308594.871094 4.339844 2.808594 5.578125 5.316406 1.621094 3.269532 1.851563 7.035156 1.859375 10.617188.039063 11.496094-2 22.785156-6.070312 33.558594-.972656 2.582031-2.128906 5.269531-3.980469 7.425781-.828125.957031-1.78125 1.765625-2.832031 2.398437l-.882813.53125-.15625 2.039063c-.179687 2.113281-.359375 3.714843-.574219 5.191406l-.117187.785156.457031.652344c.070313.097656.136719.191406.195313.316406 2.796875 6.03125 6.269531 10.449219 10.3125 13.132813 2.886719 1.921875 6.253906 2.980468 9.480469 2.980468 2.054687 0 3.953124-.417968 5.644531-1.238281 3.308593-1.605469 5.863281-4.6875 7.597656-9.164062l.0625-.15625.035156-.164063c.035157-.179687.101563-.359375.207031-.558594l.074219-.136718.050781-.152344c1.386719-4.066406 1.980469-8.523438 2.347657-11.957031 2.378906-22.886719 3.171875-46.128907 2.347656-69.089844-.019531-.542969.175781-1.0625.542969-1.460937.371094-.398438.875-.628907 1.441406-.648438 1.125 0 2.039062.863281 2.078125 1.964844.089844 2.53125.148437 5.0625.207031 7.605468l.039063 1.621094 1.59375.296875c1.121093.210938 2.171875.8125 2.882812 1.644531 1.417969 1.675782 1.84375 3.933594 2.183594 6.289063 1.628906 11.519531 2.300781 23.296875 1.992187 34.996094-.121093 4.542969-.417968 9.328125-2.507812 13.515625-1.332031 2.65625-4.113281 5.851562-7.925781 6.863281l-1.257813.335937-.203125 1.285157c-.464843 2.914062-1.097656 5.582031-1.875 7.921875l-.195312.59375.175781.601562c.25.855469.796875 1.683594 1.617188 2.464844 2.347656 2.234375 6.746093 3.855469 10.457031 3.855469.222656 0 .441406-.003907.664062-.019531 5.722657-.335938 10.203125-4.824219 12.484375-8.910157 2.769532-4.953125 3.78125-10.890625 4.578125-16.546875 3.5-24.777344 4.203125-49.976562 2.089844-74.894531-.074219-.917969.46875-1.773437 1.328125-2.085937.226562-.085938.460938-.125.699219-.125.65625 0 1.277343.320312 1.660156.851562 2.867187 4.054688 4.773437 8.582031 6.617187 12.964844l.039063.089844c1.589844 3.765624 3.09375 7.324218 5.160156 10.601562 3.640625 5.804688 9.871094 9.855469 15.152344 9.855469 1.53125 0 2.976563-.320313 4.292969-.953125 6.628906-3.164063 7.855468-12.464844 8-17.730469.570312-21.445313-10.300782-45.699219-32.1875-50.566406-2.398438-.53125-5.015625-.789063-8-.789063-3.078125 0-6.226563.269532-9.304688.535156-3.144531.261719-6.394531.53125-9.628906.53125l-.484375-.003906c-5.046875-.039062-10.179687-.292968-15.238281-.546875l-.234375-.011719c-4.359375-.21875-8.867188-.441406-13.277344-.511718-14.722656-.257813-28.546875-.386719-42.269531-.386719-7.792969 0-15.632813.042969-23.308594.128906-8.4375.09375-17.117188.652344-22.316406 6.222657-3.808594 4.074218-4.933594 10.132812-5.839844 16.5-1.21875 8.453124-2.167969 15.929687-2.898438 22.859374l-.1875 1.773438 1.742188.386719c1.246094.273437 2.457031.964843 3.308594 1.882812zm0 0" fill="#ed6d66"/><path d="m146.53125 218.890625 1.949219.234375.269531-1.941406c1.816406-13.0625 4.074219-29.316406 11.746094-42.753906 6.429687-11.269532 19.566406-22.636719 34.417968-22.636719.871094 0 1.757813.039062 2.628907.117187 15.746093 1.410156 27.40625 15.105469 31.980469 28.054688 4.835937 13.636718 4.28125 28.492187 2.964843 42.515625l-.203125 2.160156 2.171875.027344c3.035157.035156 6.070313.054687 9.105469.054687 2.011719 0 4.023438-.007812 6.035156-.027344l2.09375-.015624-.113281-2.089844c-1.484375-27.125-3.164063-57.863282-7.125-87.953125-1.046875-7.992188-2.539063-16.222657-8.136719-21.265625-4.945312-4.453125-12.128906-5.507813-19.148437-5.980469-4.070313-.277344-8.207031-.417969-12.296875-.417969-9.589844 0-19.25.765625-28.707032 2.277344-8.652343 1.390625-19.507812 3.882812-26.707031 10.914062-8.785156 8.550782-10.804687 21.832032-12.246093 35.839844-1.027344 10.078125-1.96875 19.738282-2.882813 29.085938l-.21875 2.214844c-.867187 8.890624-1.765625 18.085937-2.75 27.648437l-.195313 1.917969 1.910157.265625c4.90625.679687 9.304687 1.253906 13.457031 1.753906zm0 0" fill="#ed6d66"/><path d="m127.628906 376.847656c-3.800781 2.886719-8.628906 4.257813-13.308594 5.589844l-.121093.027344c-.960938.269531-1.582031 1.179687-1.480469 2.171875.109375.980469.898438 1.738281 1.890625 1.808593 2.980469.199219 5.871094 1.878907 7.929687 4.589844 2.050782 2.722656 2.898438 6.089844 2.269532 9.03125s-2.679688 5.609375-5.621094 7.308594c-1.929688 1.109375-4.046875 1.699219-6.117188 1.699219-1.089843 0-2.160156-.160157-3.171874-.488281-.210938-.070313-.429688-.101563-.640626-.101563-.859374 0-1.628906.550781-1.910156 1.363281-.359375 1.046875.191406 2.199219 1.230469 2.578125 6.929687 2.511719 11.320313 10.210938 9.582031 16.800781-.851562 3.269532-3.570312 6.199219-7.089844 7.660157-1.460937.609375-2.953124.910156-4.410156.910156-.671875 0-1.320312-.0625-1.949218-.191406l-.261719-.050781-.230469-.117188c-.851562-.421875-1.71875-.773438-2.609375-1.03125-.191406-.058594-.378906-.089844-.582031-.089844-.796875 0-1.527344.480469-1.859375 1.21875-.410157.949219-.050781 2.050782.832031 2.5625.847656.5 1.757812.898438 2.6875 1.1875l.230469.070313.210937.121093c2.558594 1.507813 4.679688 3.96875 5.960938 6.917969 1.738281 3.972657 1.757812 8.402344.058594 11.832031-1.6875 3.4375-5.210938 6.121094-9.417969 7.167969-1.261719.3125-2.542969.472657-3.8125.472657-2.9375 0-5.738281-.859376-7.878907-2.410157-.351562-.25-.761718-.390625-1.191406-.390625-.546875 0-1.070312.21875-1.457031.609375-.691406.710938-.761719 1.851563-.171875 2.640625 3.101562 4.148438 6.242188 8.359375 7.601562 13.191406 1.160157 4.109376.789063 9.679688-2.671874 12.847657-2.449219 2.230469-5.160157 3.371093-8.078126 3.371093-1.339843 0-2.742187-.25-4.171874-.71875-8.789063-2.953124-17.019532-14.171874-18.507813-22.230468-.171875-.921875-.960937-1.613282-1.890625-1.652344l-.179688-.007812c-.832031 0-1.632812.609374-1.871093 1.488281-2.28125 8.089843-8.941407 14.921875-16.960938 17.390625-1.160156.359375-2.980469.789062-5.039062.789062-2.960938 0-5.320313-.910156-6.839844-2.609375-2.441406-2.738281-2.171875-7.089843-.820313-10.179687 1.148438-2.691406 3.070313-4.960938 4.621094-6.648438l.070313-.070312c.480469-.460938.929687-.941406 1.378906-1.402344.480469-.5.960937-1 1.46875-1.507812.382813-.390626.589844-.890626.589844-1.441407 0-.539062-.207031-1.050781-.589844-1.441406-.390625-.378906-.898437-.597656-1.4375-.597656-.542969 0-1.050781.210937-1.441406.597656-.949219.941406-1.929688 1.929687-2.878907 2.960937-2.460937 2.429688-4.402343 3.710938-7.761718 3.710938h-.238282c-3.761718-.050781-7.980468-1.941406-8.75-5.441406-2.011718-9.300782 8.796876-17.949219 18.207032-23.578125.972656-.570313 1.292968-1.769531.742187-2.75-.359375-.628907-1.039062-1.019531-1.769531-1.019531-.339844 0-.660156.078124-.960938.238281-3.390624 1.820312-6.851562 3.679687-10.511718 3.96875-.25.023437-.519532.042969-.777344.042969-2.8125 0-6.171875-1.230469-7.371094-3.960938-1.660156-3.761719 1.5-8.582031 5.488282-11.390625 1.25-.910156 2.621093-1.730469 3.953124-2.53125l.089844-.058594c3.300782-2.019531 7.050782-4.320312 9.4375-7.890625.480469-.71875.460938-1.660156-.058594-2.347656-.378906-.511719-.988281-.8125-1.628906-.8125-.210937 0-.410156.03125-.621094.089844-3.210937 1.011718-6.539062 2.0625-9.839843 2.0625-.53125 0-1.070313-.03125-1.570313-.082032-3.199218-.371093-6.78125-2.4375-7.449218-5.667968-.449219-2.160156.359374-4.710938 2.53125-8.011719 4.988281-7.570313 12.316406-13.738281 20.636718-17.359375.941406-.410156 1.429688-1.449219 1.140625-2.429688-.25-.871093-1.050781-1.46875-1.9375-1.46875-.101562 0-.210937.007813-.3125.027344-1.710937.261719-3.269531.402344-4.640625.402344-3.207031 0-5.609375-.710938-7.339844-2.191406-1.96875-1.660156-2.519531-3.949219-2.640624-5.582032-.238282-3.226562.972656-6.808593 3.152343-9.308593 3.789063-4.328125 9.46875-6.507813 15.460938-8.53125.328125-.109375.617187-.207031.910156-.308594 1-.390625 1.527344-1.558594 1.160156-2.589844-.292969-.800781-1.0625-1.339843-1.921875-1.339843-.210937 0-.429687.03125-.640625.101562-.199219.078125-.4375.160156-.679687.238281-.730469.199219-1.429688.300781-2.140625.300781-1.828125 0-3.410157-.621093-4.410157-1.152343-2.867187-1.5-5.089843-4.25-5.796874-7.160157-1.550782-6.226562 2.046874-12.597656 6.296874-16.136718 4.179688-3.480469 10.042969-5.78125 17.890626-7.011719.992187-.148437 1.710937-1 1.71875-2 0-1-.71875-1.851563-1.699219-2-6.878907-1.128906-12.148438-8.417969-11.078125-15.289063.96875-6.109374 7.148437-11.269531 13.488281-11.269531.589844 0 1.171875.050781 1.742187.128907.109376.019531.207032.03125.308594.03125.988282 0 1.832032-.710938 2-1.691407.191406-1.078125-.511718-2.109375-1.601562-2.339843-5.167969-1.058594-10.199219-2.570313-11.929688-6.441407-1.75-3.917969 1.011719-8.820312 4.570313-11.109375 3.742187-2.390625 8.480469-3.109375 12.609375-3.5l.121094-.007812c.519531-.019532 1.019531-.0625 1.492187-.140625 1.117187-.160157 1.867187-1.140625 1.75-2.242188-.121094-1.019531-.992187-1.796875-2.023437-1.796875h-.15625l-1.34375.117188h-.089844c-2.066406 0-4.9375-.738282-7.136719-4.25-2.660156-4.257813-2.832031-10.390625-.390625-13.96875 1.410156-2.089844 3.550781-3.148438 6.339844-3.148438.757812 0 1.578125.078125 2.449218.238282 4.011719.738281 7.871094 3.890624 10.078126 8.210937.351562.6875 1.050781 1.117187 1.832031 1.117187l.128906-.007812c.800781-.050781 1.5-.582031 1.761719-1.339844 1.640625-4.640625 6.757812-8.128906 11.929687-8.128906.980469 0 1.949219.128906 2.859375.378906 5.859375 1.609375 9.949219 8.238282 8.761719 14.191406-.160156.796876.167969 1.609376.839844 2.066407.339843.242187.738281.363281 1.160156.363281.378906 0 .757813-.113281 1.089844-.3125.347656-.21875.730469-.46875 1.097656-.710938.78125-.488281 1.511719-.976562 2.25-1.46875 4.511719-2.96875 8.710937-5.738281 13.699219-6.738281.992187-.199219 2.03125-.300781 3.101562-.300781 3.910156 0 8.859375 1.460938 11.058594 5.578125 1.191406 2.242187.921875 5.382813-.660156 7.8125-.578125.867187-1.226563 1.539063-1.957032 2l-.421874.277344-.507813.03125c-.929687.070312-1.832031.25-2.671875.519531-.941406.300781-1.53125 1.210938-1.410156 2.171875.109375.96875.890625 1.71875 1.859375 1.800781.222656.007813.429687.019532.640625.019532.832031 0 1.660156-.121094 2.460937-.371094l.359375-.101563.378906.03125c1.640626.128907 3.269532.699219 4.710938 1.671875 2.429688 1.597656 4.03125 4.078125 4.261719 6.617188.25 2.542968-.863281 5.269531-2.972657 7.3125-1.839843 1.777344-4.199218 2.796875-6.46875 2.796875-.308593 0-.621093-.019531-.929687-.058594-.082031-.007813-.171875-.007813-.25-.007813-.941406 0-1.78125.667969-1.980469 1.589844-.21875 1.039063.371094 2.058594 1.378906 2.378906 5.882813 1.847657 10.082032 8.570313 9.160157 14.667969-.9375 6.203125-6.800781 11.28125-13.070313 11.320313-1.027344 0-1.886718.78125-2 1.800781-.117187 1.019531.542969 1.96875 1.542969 2.199219 6.546875 1.570312 14.199219 6.769531 15.507813 14.460937.628906 3.628907-.800782 7.851563-3.628907 10.738281-2 2.011719-4.402343 3.121094-6.769531 3.121094-.402344 0-.800781-.027344-1.199219-.089844-.101562-.019531-.203125-.03125-.300781-.03125-.910156 0-1.710938.613282-1.960938 1.460938-.28125.980469.210938 2.03125 1.148438 2.441406 6.113281 2.679688 11.910156 5.898438 12.980469 11.230469.941406 4.679687-2.257813 9.007813-5.289063 11.300781zm0 0" fill="#ed6d66"/><path d="m96.714844 209.355469-.117188-.046875s-.148437-.042969-.160156-.046875l-.179688-.09375-.101562-.035157c-1.722656-.644531-3.605469-.984374-5.449219-.984374-2.265625 0-4.460937.507812-6.339843 1.460937-4.671876 2.359375-7.855469 7.558594-7.929688 12.941406l-.023438 1.804688 1.792969.207031c.425781.050781.84375.101562 1.253907.15625l20.917968 2.574219c.738282.085937 1.507813.1875 2.296875.296875l1.804688.246094.414062-1.773438c1.171875-5.011719-.367187-10.476562-3.914062-13.921875-1.171875-1.140625-2.609375-2.078125-4.265625-2.785156zm0 0" fill="#e08e53"/><path d="m381.996094 313.132812c2.089844-4.152343 2.386718-8.945312 2.511718-13.503906.3125-11.636718-.359374-23.410156-2-34.992187-.332031-2.34375-.746093-4.582031-2.167968-6.273438-.410156-.472656-.945313-.886719-1.546875-1.1875l-2.933594-1.460937.039063 3.273437c.230468 19.386719-.652344 38.835938-2.621094 57.800781-.023438.152344-.039063.304688-.050782.453126l-.292968 3.59375 3.203125-1.652344c2.390625-1.234375 4.582031-3.496094 5.859375-6.050782zm0 0" fill="#d3413d"/><path d="m341.28125 304.472656c4.066406-10.761718 6.109375-22.046875 6.066406-33.542968-.007812-3.578126-.242187-7.339844-1.855468-10.597657-.929688-1.886719-2.441407-3.5625-4.152344-4.605469l-2.773438-1.683593-5.085937 62.566406 4.074219-5.046875c1.742187-2.15625 2.863281-4.796875 3.726562-7.089844zm0 0" fill="#d3413d"/><path d="m306.21875 294.640625c2.234375-8.238281 1.792969-16.851563 1.367188-25.207031-.117188-2.253906-.246094-4.8125-1.40625-6.949219-.398438-.738281-.953126-1.410156-1.609376-1.949219l-2.816406-2.328125-6.554687 53.988281 4.238281-4.714843c3.097656-3.445313 5.445312-7.886719 6.78125-12.839844zm0 0" fill="#d3413d"/><path d="m261.644531 314.074219 2.519531-1.5c1.371094-.816407 2.550782-2.042969 3.410157-3.542969 1.367187-2.378906 1.890625-5.097656 2.3125-7.675781 2.457031-15.242188 1.941406-31.257813-1.496094-46.328125-.5625-2.4375-1.25-4.976563-2.949219-6.828125-.691406-.746094-1.617187-1.347657-2.601562-1.683594l-2.398438-.824219-.242187 2.523438c-2.378907 24.597656-2.070313 44.605468.96875 62.96875zm0 0" fill="#d3413d"/><path d="m214.914062 83.746094-2.007812.097656.105469 2.007812c.261719 5.023438.21875 10.140626-.140625 15.203126l-.140625 2.027343 2.027343.109375 1.082032.054688c.535156.023437 1.070312.046875 1.601562.082031 3.578125.25 6.441406.617187 9.007813 1.152344l2.328125.488281.769531-22.5-2.308594.269531c-4.074219.472657-8.222656.8125-12.324219 1.007813zm0 0" fill="#ffc973"/><path d="m212.96875 85.792969-.101562-1.953125-1.957032.058594c-2.417968.070312-4.757812.109374-6.949218.109374-1.003907 0-2-.019531-3-.035156l-3.265626-.050781.203126 2.21875c.449218 4.859375.582031 9.828125.394531 14.757813l-.082031 2.125 2.125-.046876c1.507812-.035156 3.015624-.050781 4.523437-.050781 1.980469 0 3.96875.027344 5.90625.089844l1.925781.058594.132813-1.917969c.355469-5.113281.40625-10.28125.144531-15.363281zm0 0" fill="#ffc973"/><path d="m197.820312 85.671875-.171874-1.757813-1.761719-.046874c-3.089844-.085938-6.269531-.226563-9.71875-.429688l-2.265625-.132812 1.378906 20.632812 2.042969-.191406c3.3125-.304688 6.261719-.515625 9.019531-.644532l1.828125-.082031.078125-1.832031c.210938-5.15625.066406-10.375-.429688-15.515625zm0 0" fill="#ffc973"/><path d="m182.128906 83.179688c-3.605468-.246094-7.363281-.546876-11.171875-.886719l-2.558593-.226563.40625 2.535156c1.015624 6.347657 1.566406 12.792969 1.636718 19.15625l.023438 2.367188 2.332031-.421875c.921875-.164063 1.835937-.324219 2.730469-.460937 2.390625-.382813 4.953125-.730469 7.835937-1.070313l1.890625-.21875-1.382812-20.652344zm0 0" fill="#ffc973"/><path d="m168.613281 83.585938-.253906-1.515626-1.53125-.144531c-3.125-.300781-6.210937-.601562-9.257813-.910156l-2.335937-.238281 1.714844 29.503906 2.5625-.992188c2.835937-1.097656 5.886719-2.007812 9.335937-2.78125l1.566406-.351562-.007812-1.609375c-.027344-6.972656-.632812-14.027344-1.792969-20.960937zm0 0" fill="#ffc973"/><path d="m107.46875 108.4375c-2.613281 0-5.441406 1.65625-7.378906 4.328125-1.917969 2.652344-2.953125 5.921875-3.933594 9.316406-6.617188 22.882813-10.152344 46.558594-10.507812 70.371094-.046876 3.050781-.0625 6.597656.375 10.074219l.25 1.992187 1.992187-.257812c.796875-.105469 1.609375-.15625 2.421875-.15625 1.234375 0 2.480469.121093 3.703125.355469l1.632813.3125.609374-1.546876c10.5-26.808593 19.269532-51.097656 20.246094-76.945312.148438-4.011719.074219-8.210938-1.476562-11.757812-1.585938-3.613282-4.757813-6.058594-7.933594-6.085938zm0 0" fill="#ffc973"/><path d="m113.308594 235.464844c-3.390625-2.710938-7.898438-3.453125-13.4375-4.144532l-20.15625-2.480468c-2.269532-.28125-4.847656-.601563-7.382813-.601563-2.863281 0-5.230469.414063-7.230469 1.265625-2.363281.996094-4.410156 3.0625-5.347656 5.382813-.664062 1.640625-.695312 3.25-.097656 4.648437.050781.125.089844.253906.117188.386719l.15625.847656.726562.46875c1.324219.851563 2.539062 1.859375 3.601562 2.996094l1.480469 1.574219 1.457031-1.59375c3.199219-3.503906 7.894532-5.59375 12.550782-5.59375 1.351562 0 2.683594.175781 3.949218.523437 5.378907 1.480469 9.855469 6.132813 11.402344 11.851563l.710938 2.636718 2.296875-1.472656c3.707031-2.378906 7.804687-4.714844 12.625-5.683594 1.140625-.238281 2.324219-.371093 3.609375-.410156l1.117187-.035156.554688-.972656c.519531-.910156.738281-1.996094.648437-3.214844-.152344-2.371094-1.472656-4.878906-3.351562-6.378906zm0 0" fill="#ffc973"/><path d="m79.667969 405.90625c-1.105469-.101562-2.085938.722656-2.183594 1.832031s.722656 2.085938 1.832031 2.183594c2.464844.214844 4.808594 1.660156 6.433594 3.960937 1.625 2.300782 2.199219 4.992188 1.578125 7.386719-.617187 2.394531-2.429687 4.46875-4.96875 5.691407-2.152344 1.035156-4.460937 1.285156-6.492187.714843-.433594-.191406-.878907-.355469-1.339844-.480469-1.019532-.28125-2.078125.269532-2.433594 1.261719-.355469.992188.113281 2.09375 1.074219 2.523438.402343.179687.816406.335937 1.238281.46875 1.3125.652343 2.4375 1.859375 3.113281 3.375.835938 1.871093.859375 3.9375.066407 5.527343-.789063 1.589844-2.453126 2.8125-4.449219 3.269532-1.996094.460937-4.03125.089844-5.4375-.992188-.738281-.566406-1.765625-.554687-2.492188.027344-.726562.582031-.957031 1.585938-.5625 2.429688 1.496094 3.175781 1.675781 6.695312.484375 9.421874-1.265625 2.890626-4.199218 4.851563-7.015625 4.652344-1.402343-.097656-2.835937-.859375-3.828125-2.039062-.863281-1.03125-1.277344-2.226563-1.15625-3.371094.113282-1.105469-.691406-2.097656-1.800781-2.210938-1.097656-.113281-2.097656.6875-2.210937 1.796876-.230469 2.238281.507812 4.507812 2.085937 6.382812 1.703125 2.027344 4.121094 3.289062 6.632813 3.464844.222656.015625.445312.019531.667968.019531 4.285156 0 8.460938-2.832031 10.316406-7.082031 1.117188-2.554688 1.40625-5.472656.875-8.402344 1.398438.222656 2.871094.171875 4.34375-.167969 3.203126-.738281 5.8125-2.707031 7.15625-5.402343 1.34375-2.695313 1.347657-5.960938.007813-8.964844-.21875-.488282-.464844-.953125-.738281-1.394532 1.230468-.226562 2.457031-.625 3.644531-1.195312 3.609375-1.738281 6.203125-4.765625 7.121094-8.3125.921875-3.542969.121093-7.453125-2.1875-10.722656-2.3125-3.273438-5.726563-5.332032-9.375-5.652344zm0 0"/><path d="m99.847656 311.847656c-1.058594-.332031-2.191406.253906-2.527344 1.3125-.335937 1.0625.253907 2.195313 1.3125 2.53125 4.492188 1.417969 7.867188 5.867188 8.027344 10.570313.160156 4.707031-2.90625 9.371093-7.289062 11.09375-.804688.3125-1.320313 1.109375-1.277344 1.96875.039062.863281.625 1.605469 1.457031 1.84375 4.492188 1.289062 7.632813 6.046875 6.71875 10.183593-.453125 2.042969-2.121093 3.875-4.355469 4.769532-1.910156.769531-3.824218.679687-5.265624-.246094-.035157-.019531-.066407-.042969-.101563-.0625-.929687-.601562-2.167969-.339844-2.777344.585938-.609375.921874-.359375 2.167968.5625 2.78125.035157.023437.070313.050781.109375.070312 1.917969 1.285156 3.242188 3.492188 3.636719 6.078125.398437 2.625-.230469 5.164063-1.730469 6.964844s-3.882812 2.878906-6.535156 2.964843c-2.636719.089844-5.09375-.847656-6.703125-2.550781-.765625-.808593-2.039063-.84375-2.851563-.082031-.808593.765625-.84375 2.042969-.078124 2.851562 2.300781 2.4375 5.675781 3.816407 9.308593 3.816407.148438 0 .300781-.003907.449219-.007813 3.804688-.121094 7.269531-1.726562 9.507812-4.414062 2.234376-2.6875 3.191407-6.382813 2.617188-10.148438-.222656-1.476562-.671875-2.875-1.308594-4.144531.886719-.121094 1.777344-.359375 2.664063-.714844 3.449219-1.386719 6.050781-4.316406 6.785156-7.640625 1.089844-4.921875-1.425781-10.234375-5.769531-13.164062 3.925781-3.027344 6.421875-7.960938 6.253906-12.933594-.214844-6.355469-4.773438-12.359375-10.839844-14.277344zm0 0"/><path d="m56.320312 418.582031c2.738282-.289062 4.90625-1.746093 5.945313-3.996093.46875-1.011719.027344-2.210938-.984375-2.675782-1.011719-.46875-2.207031-.027344-2.675781.984375-.585938 1.273438-1.949219 1.597657-2.707031 1.679688-1.726563.175781-3.503907-.507813-4.410157-1.71875-2.019531-2.695313-1.21875-6.847657.617188-9.554688 1.957031-2.882812 5.101562-5.03125 8.054687-6.90625.40625-.210937.792969-.460937 1.164063-.742187.855469-.65625 1.042969-1.867188.429687-2.75-.613281-.886719-1.816406-1.128906-2.730468-.554688-.285157.175782-.570313.359375-.863282.542969-1.253906.613281-2.851562.644531-4.429687.058594-1.964844-.730469-3.410157-2.253907-3.773438-3.972657-.351562-1.683593.253907-3.589843 1.617188-5.101562 1.007812-1.113281 2.269531-1.855469 3.5625-2.132812.679687-.007813 1.351562-.042969 2.011719-.085938 1.039062-.074219 1.855468-.929688 1.875-1.972656.023437-1.046875-.761719-1.933594-1.800782-2.042969-.816406-.089844-1.644531-.0625-2.457031.074219-2.195313-.003906-4.339844-.34375-5.722656-1.648438-1.117188-1.058594-1.363281-2.476562-1.371094-3.480468-.019531-2.050782.9375-4.324219 2.433594-5.789063 2.949219-2.886719 7.433593-3.976563 11.390625-4.9375 1.082031-.265625 1.746094-1.355469 1.484375-2.4375s-1.355469-1.746094-2.433594-1.480469c-4.242187 1.03125-9.519531 2.3125-13.261719 5.972656-2.273437 2.230469-3.671875 5.566407-3.644531 8.703126.019531 2.527343.957031 4.789062 2.632813 6.375.820312.777343 1.738281 1.347656 2.710937 1.757812-.136719.136719-.269531.277344-.398437.421875-2.230469 2.464844-3.191407 5.691406-2.574219 8.632813.644531 3.0625 3.0625 5.714843 6.316406 6.921874.097656.035157.195313.070313.292969.101563-1.429688 1.222656-2.753906 2.597656-3.847656 4.207031-2.558594 3.769532-3.808594 9.832032-.507813 14.234375 1.574219 2.101563 4.277344 3.363281 7.082031 3.363281.324219 0 .648438-.015624.972656-.050781zm0 0"/><path d="m66.117188 336.410156c.609374.109375 1.214843.164063 1.808593.164063 1.886719 0 3.660157-.546875 5.128907-1.597657.902343-.648437 1.109374-1.910156.460937-2.8125-.648437-.90625-1.90625-1.113281-2.8125-.464843-1.03125.742187-2.40625 1.007812-3.871094.742187-1.71875-.308594-3.28125-1.292968-4.1875-2.636718-1.738281-2.582032-1.625-6.527344.273438-9.589844 1.726562-2.78125 4.847656-5.03125 8.785156-6.335938 1.03125-.339844 1.605469-1.433594 1.304687-2.472656-.304687-1.042969-1.375-1.65625-2.425781-1.394531-2.089843.523437-4.9375.558593-6.085937-1.066407-1.03125-1.460937-.222656-3.851562 1.183594-5.167968 1.796874-1.683594 4.535156-2.457032 6.953124-3.136719.882813-.25 1.488282-1.066406 1.464844-1.984375-.019531-.921875-.660156-1.710938-1.554687-1.917969-1.90625-.449219-3.65625-1.785156-4.792969-3.667969-1.140625-1.878906-1.515625-4.050781-1.023438-5.949218.488282-1.898438 1.859376-3.617188 3.765626-4.714844s4.082031-1.425781 5.972656-.898438c1.070312.300782 2.183594-.324218 2.484375-1.394531.296875-1.074219-.328125-2.1875-1.398438-2.488281-2.925781-.816406-6.230469-.351562-9.070312 1.289062-2.839844 1.636719-4.902344 4.261719-5.660157 7.203126-.757812 2.941406-.214843 6.238281 1.480469 9.042968.726563 1.199219 1.632813 2.253906 2.664063 3.125-1.433594.617188-2.835938 1.421875-4.039063 2.550782-2.691406 2.519531-4.070312 7.113281-1.71875 10.4375.664063.941406 1.546875 1.675781 2.59375 2.195312-1.769531 1.332031-3.230469 2.890625-4.304687 4.621094-2.753906 4.4375-2.832032 10.050781-.191406 13.96875 1.496093 2.226562 4.042968 3.855468 6.8125 4.351562zm0 0"/><path d="m92.074219 301.625c.785156.207031 1.585937.304688 2.390625.304688 3.964844 0 7.925781-2.417969 9.507812-6.097657 1.101563-2.554687.972656-5.519531-.121094-8.058593 2.347657-.378907 4.613282-1.625 6.121094-3.605469 2.5-3.277344 2.863282-8.042969.925782-12.132813-1.574219-3.335937-4.617188-6.191406-8.558594-8.046875-1.007813-.476562-2.210938-.042969-2.683594.964844-.472656 1.003906-.042969 2.207031.964844 2.683594 3.101562 1.457031 5.457031 3.632812 6.632812 6.121093 1.277344 2.703126 1.082032 5.90625-.488281 7.96875-1.546875 2.027344-4.679687 2.757813-6.636719 1.5625-.042968-.027343-.085937-.054687-.128906-.082031-.9375-.582031-2.171875-.296875-2.761719.636719-.59375.929688-.324219 2.167969.601563 2.769531.046875.03125.089844.058594.136718.089844 2.355469 1.53125 3.40625 4.953125 2.292969 7.539063-1.125 2.617187-4.410156 4.214843-7.164062 3.484374-1.074219-.28125-2.179688.359376-2.464844 1.433594-.285156 1.074219.355469 2.179688 1.433594 2.464844zm0 0"/><path d="m510.382812 248.027344c-.824218-4.550782-2.199218-10.414063-5.5625-15.367188-3.550781-5.226562-8.832031-8.539062-14.308593-9.035156-1.554688-3.90625-4.25-7.015625-7.65625-8.679688-3.777344-1.84375-7.851563-1.738281-11.128907-1.652343l-5.738281.148437-9.210937-57.664062c-.878906-5.5-1.972656-12.347656-6.5-17.558594-5.210938-5.996094-12.925782-7.71875-20.558594-8.246094.269531-.597656.421875-1.257812.371094-1.957031l-3.140625-44.246094c-.15625-2.234375-.398438-5.605469-2.570313-8.3125-3.242187-4.039062-8.617187-4.171875-11.507812-4.246093l-35.011719-.878907c-2.351563-.058593-5.570313-.140625-8.492187 1.582031-5.433594 3.207032-5.871094 10.039063-6.082032 13.320313l-2.773437 43.511719c-6.5625-.054688-15.457031.304687-21.882813 5.796875-5.929687 5.066406-7.96875 13.113281-9.3125 18.441406-3.289062 12.996094-6.316406 26.238281-9.015625 39.378906-9.746093-.019531-19.289062.015625-28.714843.121094-9.328126.105469-19.851563.832031-26.679688 8.148437-4.964844 5.316407-6.339844 12.3125-7.390625 19.617188-1.554687-28.441406-3.273437-57.699219-7.050781-86.40625-1.148438-8.722656-2.96875-18.566406-10.09375-24.980469-1.738282-1.5625-3.664063-2.789062-5.699219-3.765625.109375-.347656.191406-.707031.207031-1.089844l.699219-20.429687c4.164063-.703125 8.300781-1.574219 12.394531-2.652344 1.222656-.324219 2.21875-1.199219 2.699219-2.363281.480469-1.167969.390625-2.492188-.25-3.578125-2.816406-4.792969-3.621094-10.632813-2.460937-16.042969 7.703124 13.011719 12.410156 27.675782 13.675781 42.777344l.117187 1.488281c.320313 4.152344.6875 8.855469 2.929688 13.097657 2.304687 4.355468 7.0625 7.871093 12.113281 7.871093 1.320313 0 2.664063-.242187 3.984375-.773437 3.496094-1.402344 7.792969-5.1875 8.421875-15.273438 1.507813-24.195312-8.4375-48.941406-26.109375-65.523437 2.9375-.914063 6.050781-1.238281 9.117188-.867188 1.160156.144531 2.605468.425781 4.136718.726563 7.582032 1.488281 20.269532 3.976562 23.886719-7.984375 2.503906-8.277344-3.824219-16.960938-17.363281-23.828125-8.789063-4.457032-18.292969-6.308594-26.429688-7.535156-34.167968-5.136719-72.230468-2.753907-119.789062 7.496093-2.90625.625-9.703125 2.089844-11.921875 7.96875-1.222657 3.238281-.464844 6.546875.039062 8.734375l8.382813 36.589844c.921875 4.019531 2.183594 9.523438 6.203125 13.359375 2.871093 2.742187 6.449219 4.023437 9.871093 4.714844l1.714844 29.355469c-2.027344 1.285156-3.960937 2.757812-5.726562 4.480468-10.238282 9.984375-12.480469 24.414063-14.035156 39.570313-1.078126 10.527343-2.058594 20.585937-3.007813 30.3125-.890625 9.105469-1.808594 18.515625-2.808594 28.308593-5.683593-.847656-11.355469-1.75-17.015625-2.722656-.113281-.015625-.222656-.011718-.332031-.019531-.800781-1.253906-1.734375-2.425781-2.804687-3.46875-.902344-.878906-1.898438-1.644531-2.949219-2.328125 9.84375-25.136719 19.625-51.136719 20.675781-78.957031.179688-4.730469.0625-9.753907-1.980469-14.417969-2.554687-5.839844-7.804687-9.65625-13.371093-9.726562-.050782 0-.101563 0-.152344 0-4.574219 0-9.140625 2.546874-12.25 6.835937-2.480469 3.425781-3.757813 7.40625-4.851563 11.191406-6.765625 23.402344-10.382812 47.617188-10.75 71.972657-.058593 3.863281-.035156 8.226562.675781 12.59375-5.882812 3.621093-9.699218 10.378906-9.878906 17.269531-2.554687.152343-5.148437.628906-7.65625 1.691406-3.847656 1.636719-7.0625 4.890625-8.59375 8.707031-.53125 1.316406-.828125 2.660156-.914062 3.996094-5.492188-.46875-10.160156 1.554688-12.984375 5.710938-3.808594 5.601562-3.699219 14.261718.265625 20.59375.296875.472656.605468.921874.933594 1.351562-1.46875.566406-2.90625 1.269531-4.28125 2.152344-7.65625 4.914062-9.234376 13.289062-6.835938 18.679687.964844 2.167969 2.429688 3.847657 4.125 5.160157-4.429688 2.960937-7.734375 7.617187-8.582031 13.007812-.972657 6.195312 1.425781 12.457031 5.742187 16.789062-4.109375 1.464844-7.574218 3.390626-10.464844 5.796876-6.957031 5.796874-10.222656 14.535156-8.316406 22.257812.90625 3.675781 3.1875 7.039062 6.300782 9.425781-2.519532 1.460938-4.902344 3.261719-6.914063 5.570313-3.261719 3.742187-4.992187 8.882812-4.628906 13.753906.296875 3.933594 1.984375 7.394531 4.75 9.746094 1.058593.898437 2.203125 1.589844 3.386719 2.113281-4.703126 3.625-8.824219 8.019531-12.066407 12.945313-1.957031 2.972656-4.4375 7.507812-3.398437 12.566406 1.035156 5.039062 5.589844 9.105468 11.304687 10.25-.402343.265625-.804687.539062-1.199219.820312-5.996093 4.253906-10.644531 11.71875-7.519531 18.796875 1.496094 3.394531 4.730469 5.914063 8.617188 6.992188-5.738281 6.183593-7.941407 12.503906-6.554688 18.890625 1.476563 6.824218 8.46875 10.066406 14.410157 10.21875-1.378907 5.167968-.382813 10.445312 2.78125 14 4.738281 5.3125 12.503906 5.332031 18.191406 3.578125 6.734375-2.078125 12.6875-6.628907 16.703125-12.457031 4.125 7.523437 11.136719 14.777343 18.992187 17.410156 2.046875.6875 4.085938 1.027344 6.078125 1.027344 4.425781 0 8.621094-1.679688 12.195313-4.949219 4.707031-4.3125 6.4375-11.753907 4.410156-18.960938-.59375-2.101562-1.433594-4.070312-2.414062-5.929687 1.628906-.03125 3.285156-.246094 4.9375-.65625 6.007812-1.488282 10.894531-5.261719 13.410156-10.363282 2.515625-5.097656 2.539062-11.273437.0625-16.945312-.503906-1.160156-1.09375-2.257812-1.765625-3.28125.167969-.066406.335937-.132812.503906-.199219 5.304687-2.191406 9.285156-6.574219 10.640625-11.71875 1.53125-5.8125-.171875-12.191406-3.957031-17.078125.726562-.304687 1.4375-.660156 2.136719-1.058594 1.410156-.816406 2.671874-1.804687 3.789062-2.898437 2.386719 7.390625 3.699219 15.203125 5.070312 23.355469.660157 3.910156 1.339844 7.957031 2.148438 11.925781 3.980469 19.5625 11.183594 32.917969 22.015625 40.835937 10.878906 7.945313 24.285156 9.757813 38.214844 11.046876 30.183593 2.789062 58.734375 4.1875 85.898437 4.1875 40.910156 0 78.671875-3.171876 114.089844-9.535157 11.917969-2.140625 25.332031-5.28125 33.71875-15.503906 5.75-7.003906 7.804688-15.820313 9.617188-23.597656l19.898437-85.34375c.058594-.261719.089844-.523438.097656-.78125 15.128907-10.511719 27.933594-23.632813 37.21875-38.421875 15.210938-24.222656 21.1875-53.335938 16.394531-79.875zm-32.167968 55.921875c-3.980469 7.257812-8.621094 14.089843-13.816406 20.445312 4.746093-21.691406 8.546874-43.707031 11.328124-65.6875 2.601563-.179687 5.480469-.710937 8.042969-2.414062 2.332031-1.550781 3.867188-3.660157 4.933594-6 3.433594 15.878906-.203125 34.914062-10.488281 53.65625zm-120.9375 69.90625c-.75-2.300781-1.878906-4.585938-3.402344-6.832031-4.617188-6.804688-12.929688-11.082032-22.8125-11.734376-4.976562-.332031-10.019531.269532-14.589844 1.734376-1.558594.5-2.972656 1.328124-4.21875 2.054687-.941406.550781-2.007812 1.175781-2.648437 1.332031-.839844.203125-.839844.203125-2.148438-.367187-.503906-.21875-1.074219-.464844-1.753906-.726563-10.1875-3.9375-22.355469-2.433594-31.308594 3.636719-13.578125-9.875-33-10.894531-47.429687-2.144531-3.6875 2.234375-7.199219 5.402344-9.789063 9.152344-.535156-.351563-1.152343-.59375-1.832031-.65625-27.332031-2.453126-53.949219-11.550782-77.085938-26.300782.636719-2.425781.785157-4.9375.371094-7.347656-1.101562-6.449219-5.164062-11.503906-10.160156-14.917969 4.277344-3 7.394531-7.648437 8.191406-12.945312.878906-5.835938-1.164062-11.75-5.042968-16 .828124-.554688 1.621093-1.195313 2.363281-1.917969 3.457031-3.347656 5.203125-7.804688 4.789062-12.21875-.410156-4.417969-2.949219-8.472656-6.960937-11.128906-.363282-.238282-.734375-.464844-1.109375-.671875 2.246093-4.121094 2.402343-9.089844.34375-12.964844-.277344-.523437-.613281-1.039063-.980469-1.546875 28.730469 5.582031 57.859375 8.382812 87.066406 8.382812 12.046875 0 24.105469-.492187 36.152344-1.445312-1.257812 18.441406-1.0625 37.175781 2.175781 55.601562 1.234375 7.027344 3.054688 14.320313 7.957031 20.050782 5.050782 5.90625 14.699219 9.808594 22.632813 5.414062 3.519531-1.949218 5.804687-4.898437 7.359375-8.371094 2.835938 3.417969 6.066406 6.847657 10.113281 9.371094 3.851563 2.402344 8.09375 3.632813 12.121094 3.632813 2.832031 0 5.558594-.609375 7.96875-1.84375 3.886719-1.996094 6.472656-5.121094 8.222656-8.8125 2.503907 3.660156 5.359375 6.574219 8.542969 8.691406 3.976562 2.640625 8.46875 3.996094 12.804688 3.996094 2.914062 0 5.753906-.613281 8.316406-1.855469 3.042968-1.476562 5.386718-3.597656 7.226562-6.105469 3.542969 3.070313 9.089844 5.078125 14.078125 5.078125.347657 0 .691407-.011718 1.035157-.03125 6.824218-.390625 13.5-4.988281 17.421874-11.992187 3.285157-5.863281 4.417969-12.4375 5.296876-18.667969 2.625-18.601562 3.707031-37.441406 3.226562-56.234375.953125 2.039063 1.996094 4.066406 3.226562 6.019531 5.65625 9.003906 17.113282 15.96875 27.203126 11.140625 5.132812-2.457031 8.671874-7.457031 10.34375-14.402343l17.023437-.117188c-3.328125 25.925781-8.0625 51.914062-14.128906 77.3125-.007813.042969-.007813.085938-.015625.128906-7.851563 7.546875-16.621094 14.152344-26.148438 19.636719-21.273437 12.25-45.46875 18.445313-70.007812 17.933594zm-7.871094 11.238281c-2.523438 6.523438-12.621094 15.238281-26.359375 18.546875-30.023437 7.230469-60.683594 5.394531-86.34375-5.167969-9.214844-3.792968-14.433594-8.421875-15.519531-13.761718-1.363282-6.707032 4.207031-13.519532 9.960937-17.007813 5.25-3.183594 11.449219-4.734375 17.671875-4.734375 8.316406 0 16.679688 2.773438 22.890625 8.136719 1.507813 1.300781 3.734375 1.308593 5.25.015625 6.894531-5.871094 17.277344-7.59375 25.839844-4.285156.5625.21875 1.035156.425781 1.449219.605468 1.953125.847656 3.800781 1.648438 7.265625.804688 1.789062-.4375 3.394531-1.375 4.8125-2.207032.933593-.542968 1.898437-1.109374 2.609375-1.335937 3.613281-1.160156 7.625-1.628906 11.601562-1.371094 7.273438.480469 13.507813 3.554688 16.667969 8.21875 3.191406 4.703125 3.910156 9.132813 2.203125 13.542969zm-211.988281-24.917969c-.046875-.027343-.089844-.039062-.136719-.0625-1.492188-2.710937-3.707031-4.878906-6.082031-6.589843.746093-.550782 1.460937-1.171876 2.136719-1.863282.449218-.453125.867187-.933594 1.265624-1.429687 23.796876 15.019531 51.066407 24.339843 79.085938 27.007812-.449219 1.582031-.71875 3.214844-.761719 4.882813-26.558593-.890625-52.59375-8.433594-75.507812-21.945313zm125.722656-49.324219c-3.40625-20.601562-2.949219-41.757812-.957031-62.449218.671875.234375 1.3125.640625 1.785156 1.152344 1.371094 1.496093 1.96875 3.746093 2.46875 5.921874 3.382812 14.808594 3.894531 30.5625 1.46875 45.5625-.386719 2.394532-.863281 4.90625-2.0625 6.992188-.703125 1.226562-1.660156 2.203125-2.703125 2.820312zm40.15625-48.777343c.460937.382812.855469.863281 1.128906 1.367187.941407 1.746094 1.054688 3.972656 1.164063 6.125.417968 8.175782.847656 16.632813-1.296875 24.550782-1.285157 4.738281-3.5 8.871093-6.347657 12.03125zm37.003906-4.640625c1.480469.898437 2.683594 2.339844 3.394531 3.777344 1.441407 2.914062 1.648438 6.394531 1.65625 9.722656.035157 11.257812-1.964843 22.304687-5.941406 32.835937-.867187 2.300781-1.898437 4.664063-3.414062 6.53125zm34.953125 59.609375c2-19.21875 2.875-38.703125 2.648438-58.074219.355468.175781.675781.417969.917968.699219 1.074219 1.265625 1.421876 3.207031 1.710938 5.253906 1.621094 11.441406 2.285156 23.101563 1.972656 34.65625-.113281 4.320313-.386718 8.855469-2.292968 12.65625-1 2.003906-2.800782 4.042969-4.996094 5.171875.011718-.121094.027344-.246094.039062-.363281zm96.683594-95.691407c2.519531-.0625 5.378906-.136718 7.378906.839844 2.652344 1.292969 4.03125 4.523438 4.441406 7.109375.554688 3.542969-.09375 7.445313-.71875 11.21875-.621093 3.742188-1.421874 7.523438-3.734374 9.058594-1.457032.96875-3.601563 1.128906-6.238282 1.164063-.128906-.03125-.257812-.074219-.394531-.089844-.519531-.0625-1.023437-.019532-1.496094.105468l-19.554687.136719c.007812-.191406.023437-.375.027344-.566406.253906-9.441406-1.546876-19.382813-5.351563-28.304687zm-102.429688-106.984374c2.097657.230468 4.199219.449218 6.300782.648437l-.492188 13.960937-6.734375-.109374zm10.320313 1.023437c2.300781.203125 4.597656.382813 6.898437.550781 0 .042969-.011718.085938-.011718.132813l-.152344 13.078125-7.214844-.113282zm10.914063.816406c2.8125.179688 5.625.339844 8.441406.464844.496094 4.183594.34375 8.511719-.425782 12.675781l-8.164062-.128906zm12.511718.617188c2.746094.097656 5.492188.175781 8.242188.222656.003906.101563.007812.203125.027344.304687.792968 4.039063.949218 8.132813.476562 12.203126l-9.15625-.144532c.714844-4.15625.851562-8.375.410156-12.585937zm12.316406.273437c1.316407.011719 2.636719.027344 3.953126.027344.570312 0 1.140624-.011719 1.710937-.011719l.8125 11.472657c.027344.398437.132813.773437.265625 1.132812l-6.269531-.101562c.449219-4.175782.292969-8.371094-.472657-12.519532zm-42.109374-38.238281c.9375-.546875 2.746093-.503906 4.195312-.464844l35.015625.878907c1.464844.035156 4.519531.113281 5.417969 1.230468.597656.742188.722656 2.53125.816406 3.835938l2.039062 28.742187c-17.0625.050781-34.230468-.871093-51.179687-2.746093l1.570313-24.585938c.171874-2.726562.570312-5.972656 2.125-6.890625zm-36.328126 76.101563c1.453126-5.738282 3.058594-11.148438 6.734376-14.289063 4.382812-3.742187 11.199218-3.953125 18.398437-3.839844l61.488281.972657c7.941406.125 16.0625.667968 20.433594 5.703124 2.796875 3.214844 3.714844 7.835938 4.628906 13.542969l9.039063 56.605469-15.664063.40625c-.007812 0-.011718.003906-.015625.003906-2.980469-4.804687-6.644531-9.089844-11.011719-12.539062 1.890626-15.308594-.269531-26.972656-6.597656-35.589844-6.703125-9.128906-18.484375-14.480469-30.722656-13.949219-10.984375.46875-21.953125 5.398438-30.890625 13.875-7.15625 6.792969-12.964844 15.785157-17.3125 26.699219-5.792969-.074219-11.492187-.128906-17.109375-.164062 2.59375-12.5 5.476562-25.082032 8.601562-37.4375zm90.269532 43.914062c-3.792969-2.367188-8.019532-4.15625-12.6875-5.191406-6.519532-1.449219-12.914063-.910156-19.097656-.382813-3.316407.28125-6.460938.550781-9.570313.515625-4.957031-.042968-10.066406-.296875-15.003906-.542968-4.480469-.222657-9.117188-.453126-13.703125-.535157-2.484375-.042969-4.933594-.078125-7.378906-.117187 4.0625-9.722656 9.347656-17.742188 15.765624-23.832032 8.230469-7.808593 18.277344-12.34375 28.289063-12.773437 10.921875-.457031 21.382813 4.25 27.304687 12.308594 5.398438 7.351562 7.394532 17.382812 6.082032 30.550781zm-161.929688 22.679688c.867188-6.046876 1.925782-11.773438 5.332032-15.421876 4.65625-4.988281 12.863281-5.496093 20.871093-5.585937 20.910157-.234375 42.34375-.152344 65.523438.253906 4.457031.078125 9.027343.304688 13.445312.527344 5.019531.25 10.207031.503906 15.328125.554687 3.492188.027344 6.96875-.265624 10.328125-.550781 5.832031-.492187 11.347657-.960937 16.664063.222657 20.832031 4.632812 31.175781 27.933593 30.621094 48.558593-.128907 4.804688-1.1875 13.269531-6.855469 15.980469-5.585938 2.675781-13.121094-2.152344-16.894531-8.15625-1.992188-3.175781-3.476563-6.691406-5.046876-10.410156-1.890624-4.488282-3.851562-9.128906-6.835937-13.335938-1.050781-1.484375-2.964844-2.082031-4.671875-1.457031s-2.785156 2.316406-2.632812 4.128906c2.101562 24.777344 1.402343 49.828125-2.074219 74.453125-.773438 5.472656-1.746094 11.203125-4.347657 15.855469-2.03125 3.625-5.945312 7.597656-10.851562 7.882813-3.214844.179687-7.523438-1.292969-9.625-3.289063-.570312-.542969-.929688-1.070313-1.082031-1.574219.894531-2.679687 1.507812-5.480468 1.945312-8.246094 4.144531-1.101562 7.472657-4.453124 9.203125-7.902343 2.273438-4.542969 2.589844-9.585938 2.71875-14.359375.316406-11.773438-.359375-23.660156-2.011718-35.328125-.359376-2.546875-.859376-5.210938-2.632813-7.296875-1.023437-1.203125-2.496094-2.035156-4.046875-2.320313-.050781-2.546875-.113281-5.09375-.203125-7.632812-.078125-2.222657-1.949219-3.945313-4.171875-3.886719-2.226562.082031-3.964844 1.949219-3.886719 4.171875.8125 22.886719.023438 46.042969-2.347656 68.816406-.390625 3.765625-1.007813 7.882813-2.25 11.519531-.179687.339844-.320313.703126-.394531 1.089844-1.386719 3.5625-3.441406 6.550782-6.609375 8.085938-3.769531 1.828125-8.925781 1.199218-13.140625-1.601563-3.738282-2.484375-6.972656-6.625-9.613282-12.3125-.105468-.222656-.230468-.425781-.367187-.621093.253906-1.769532.441406-3.558594.585937-5.316407l.082032-1.03125c1.195312-.714843 2.316406-1.648437 3.308594-2.796875 2.050781-2.382812 3.300781-5.265625 4.34375-8.027344 4.148437-10.996093 6.238281-22.527343 6.203124-34.277343-.011718-3.8125-.269531-7.84375-2.074218-11.492188-1.492188-3.019531-3.914063-5.261719-6.65625-6.300781l.453125-5.5625c.179687-2.21875-1.472657-4.164062-3.691407-4.34375-2.214843-.175781-4.167968 1.46875-4.347656 3.6875l-5.660156 69.488281c-.617188 7.601563-1.992188 15.75-7.480469 18.566407-3.269531 1.679687-8.03125 1.109374-12.136719-1.453126-4.253906-2.652343-7.613281-6.90625-10.863281-11.019531-.269531-.339843-.589843-.609375-.933593-.835937.1875-1.15625.351562-2.324219.492187-3.492188l.714844-5.886718c5.082031-3.828126 9.019531-9.863282 10.984375-17.105469 2.308594-8.535157 1.863281-17.316407 1.429687-25.808594-.121093-2.355469-.269531-5.285156-1.644531-7.835937-.863281-1.605469-2.363281-3.050782-4.148438-3.789063l.976563-8.019531c.269531-2.207032-1.308594-4.21875-3.515625-4.488282-2.21875-.269531-4.222656 1.308594-4.488281 3.515626l-7.757813 63.875c-.214844.414062-.28125.902343-.167968 1.382812l-.386719 3.1875c-.785157 6.457031-2.09375 12.753906-6.34375 15.109375-3.988281 2.210937-9.644531-.148437-12.597657-3.601563-3.132812-3.664062-4.644531-8.644531-5.671874-13.71875 2.179687-.871093 4.128906-2.605468 5.472656-4.9375 1.53125-2.671874 2.117187-5.714843 2.542968-8.359374 2.507813-15.503907 1.980469-31.792969-1.519531-47.105469-.589843-2.585938-1.390625-5.527344-3.429687-7.746094-1.105469-1.207031-2.671875-2.121094-4.34375-2.488281.8125-7.6875 1.8125-15.300782 2.882812-22.785156zm-38.613281-119.027344c-3.113281-.65625-6.269531-.984375-9.277344-1.1875-.902343-.0625-1.804687-.097656-2.710937-.144532.359375-5.132812.40625-10.308593.140625-15.449218 4.160156-.203125 8.316406-.539063 12.460937-1.019532zm-54.421875 1.210937c-.070312-6.503906-.625-13.027343-1.65625-19.449219 3.699219.332032 7.4375.628907 11.210938.886719l1.132812 17.011719c-2.648438.308594-5.289062.65625-7.921875 1.078125-.898437.144531-1.824219.304687-2.765625.472656zm14.699219-1.976562-1.085938-16.324219c3.242188.191406 6.503907.332031 9.78125.429688.488281 5.0625.628907 10.164062.417969 15.238281-3.042969.140625-6.082031.367187-9.113281.65625zm12.753906-15.804688c1.355469.019531 2.707031.046875 4.0625.046875 2.335937 0 4.675781-.035156 7.015625-.105468.261719 5.035156.210938 10.09375-.144531 15.117187-3.511719-.113281-7.023438-.125-10.535157-.039063.195313-5 .0625-10.03125-.398437-15.019531zm81.265625 21.667969c-.132812 2.140625-.726562 7.230469-3.371094 8.289062-1.976562.792969-4.78125-1.132812-5.972656-3.382812-1.460938-2.757812-1.730469-6.253906-2.015625-9.949219l-.125-1.539062c-1.519531-18.128907-7.636719-35.675781-17.683594-50.832031 1.039063-1.328126 2.234375-2.519532 3.542969-3.574219 17.234375 14.929687 27.042969 38.230469 25.625 60.988281zm-148.878906-86.195312c.597656-1.585938 3.753906-2.433594 6.074218-2.9375 30.875-6.652344 57.605469-9.929688 81.78125-9.929688 12.296876 0 23.929688.847656 35.109376 2.527344 6.210937.933594 13.25 2.273437 19.898437 4.933594-7.324219 6.027343-16.65625 8.210937-23.550781 8.953124-8.3125.890626-16.902344.234376-25.210938-.398437-1.65625-.125-3.308594-.25-4.960937-.367187-29.394531-2.035157-58.996094-.445313-88.007813 4.714843l-.777344-3.410156c-.304687-1.320313-.71875-3.125-.355468-4.085937zm8.738281 40.675781-6.703125-29.246094c28.621094-5.074219 57.824219-6.632813 86.824219-4.625 1.640625.113281 3.289062.238281 4.933593.367187 8.492188.644532 17.269532 1.3125 25.945313.382813 7.941406-.851563 18.890625-3.496094 27.1875-11.152344.007813.003907.015625.007813.023437.011719 7.042969 3.574219 14.753907 9.464844 13.292969 14.300781-1.289062 4.261719-5.554687 4.1875-14.617187 2.40625-1.679688-.328125-3.265625-.640625-4.71875-.816406-11.148438-1.355469-22.777344 4.042969-28.933594 13.4375-5.1875 7.910156-6.226562 18.25-3.027344 27.097656-27.914062 6.257813-57.089844 3.328125-85.359375.488281-4.5625-.460937-8.539062-1.027343-10.941406-3.320312-2.097656-2.007812-2.976563-5.273438-3.90625-9.332031zm16.351563 20.902343c3.054687.304688 6.140624.613282 9.269531.90625 1.144531 6.804688 1.742187 13.734376 1.773437 20.640626-3.164062.707031-6.421875 1.628906-9.617187 2.867187zm-21.171876 103.476563c.949219-9.71875 1.929688-19.765625 3.007813-30.273437 1.394531-13.625 3.339844-26.523438 11.640625-34.617188 6.804688-6.640625 17.273438-9.027344 25.636719-10.367188 13.382812-2.144531 27.027343-2.761718 40.550781-1.84375 6.667969.457032 13.457031 1.433594 17.945312 5.472657 5.085938 4.578125 6.488282 12.410156 7.492188 20.039062 3.828125 29.082031 5.527344 58.878907 7.105469 87.796875-5.027344.042969-10.058594.03125-15.09375-.023437 1.277343-13.628907 1.984375-29.101563-3.066407-43.375-4.796874-13.554688-17.074218-27.890625-33.699218-29.378907-16.78125-1.5-31.65625 10.734376-38.957032 23.527344-7.65625 13.410156-10.019531 29.292969-11.992187 43.46875-4.476563-.542968-8.949219-1.132812-13.410156-1.753906 1.011719-9.929688 1.945312-19.457031 2.839843-28.671875zm94.242188 36.140625c-26.605469-.410156-53.226562-2.171875-79.667969-5.25 1.925781-13.789062 4.230469-29.214844 11.492188-41.9375 6.660156-11.671875 20.085937-22.847656 35.097656-21.503906 14.839844 1.324218 25.890625 14.367187 30.253906 26.703125 4.824219 13.628906 4.078125 28.710937 2.824219 41.988281zm12.253906 8.164062c4.46875 0 8.9375-.050781 13.402344-.125-.835938 6.429688-1.582031 12.933594-2.171875 19.488282-43.96875 3.609375-88.085937.722656-131.199219-8.558594-.003906-.054688 0-.105469-.003906-.160156-.273438-4.046875-2.425781-8.148438-5.617188-10.699219-1.941406-1.554687-4.089843-2.621094-6.289062-3.386719.550781-2.425781.652344-4.949218.328125-7.421875 43.386719 7.210938 87.535156 10.863281 131.550781 10.863281zm-155.046875-38.300781c.359375-23.636719 3.867188-47.140625 10.433594-69.851562.933594-3.230469 1.914063-6.324219 3.636719-8.699219 1.582031-2.1875 3.824218-3.515625 5.769531-3.503906 2.335937.027344 4.835937 2.042968 6.085937 4.894531 1.394532 3.179687 1.453126 7.109375 1.3125 10.878906-1 26.472657-10.519531 51.785157-20.117187 76.285157-2.226563-.421876-4.515625-.503907-6.757813-.21875-.40625-3.261719-.410156-6.589844-.363281-9.785157zm-2.378906 18.902344c3.078125-1.554687 6.910156-1.613281 10.1875-.382813.089844.039063.164063.09375.253906.128907.074219.027343.148438.039062.222657.0625 1.363281.574219 2.617187 1.367187 3.660156 2.382812 3.078125 2.988281 4.339844 7.824219 3.359375 12.027344-.796875-.109375-1.582031-.207031-2.332031-.300781l-20.164063-2.488282c-.652344-.078124-1.324219-.160156-2.015625-.242187.054688-4.539063 2.789062-9.144531 6.828125-11.1875zm-23.660156 24.246094c.734375-1.816407 2.410156-3.5 4.273437-4.292969 4-1.699219 9.09375-1.074219 13.585938-.519531l20.164062 2.484375c5.214844.644531 9.445313 1.328125 12.433594 3.71875 1.441406 1.152344 2.488281 3.140625 2.609375 4.949218.054687.828126-.078125 1.53125-.394531 2.089844-1.269532.035156-2.585938.171875-3.945313.445313-5.074219 1.019531-9.308593 3.402343-13.304687 5.964843-1.667969-6.183593-6.507813-11.53125-12.796875-13.253906-6.640625-1.824218-13.953125.652344-18.515625 5.640625-1.207032-1.285156-2.546875-2.386719-3.972656-3.308593-.054688-.269532-.132813-.539063-.246094-.800782-.390625-.914062-.351563-1.960937.109375-3.117187zm56.578125 170.007812c-2.492188 1.4375-5.285156 1.816407-7.664063 1.039063-2.09375-.6875-4.347656.4375-5.0625 2.519531-.71875 2.078125.367188 4.351563 2.4375 5.101563 5.902344 2.136718 9.796875 8.871093 8.339844 14.410156-.707031 2.683594-2.976563 5.105468-5.921875 6.320312-1.789062.738282-3.597656.941406-5.199219.613282-.941406-.46875-1.921875-.859376-2.929687-1.160157-1.957032-.582031-4.035156.386719-4.847656 2.257813s-.101563 4.054687 1.65625 5.082031c.988281.582031 2.035156 1.035156 3.121093 1.371094 2.175781 1.285156 4.019531 3.402343 5.152344 5.996093 1.5 3.4375 1.535156 7.234376.09375 10.15625-1.441406 2.917969-4.476563 5.199219-8.117187 6.101563-3.644532.898437-7.394532.296875-10.027344-1.613281-1.617188-1.171875-3.84375-.984375-5.238282.433594-1.402343 1.421874-1.550781 3.648437-.359374 5.246093 2.957031 3.945313 6.011718 8.03125 7.277343 12.527344.992188 3.527344.726563 8.242187-2.09375 10.828125-3.050781 2.792969-6.410156 3.519531-10.269531 2.226562-8.015625-2.6875-15.8125-13.324218-17.171875-20.683593-.339844-1.84375-1.90625-3.210938-3.78125-3.292969-.0625-.003906-.121094-.003906-.183594-.003906-1.796875 0-3.390625 1.195312-3.878906 2.941406-2.089844 7.453125-8.222656 13.742188-15.617187 16.023438-3.144532.972656-7.59375 1.230468-9.792969-1.238282-1.835938-2.0625-1.542969-5.621094-.492188-8.054687.949219-2.195313 2.515625-4.1875 4.265625-6.085938.488282-.484375.960938-.972656 1.421875-1.457031.464844-.480469.9375-.976562 1.4375-1.472656 1.574219-1.574219 1.578125-4.125.003907-5.703125-1.574219-1.574219-4.125-1.578125-5.699219-.003907-.960938.957032-1.960938 1.957032-2.941407 3.011719-2.183593 2.15625-3.660156 3.125-6.496093 3.074219-2.957031-.042969-6.320313-1.503906-6.832031-3.867188-1.859376-8.570312 10.035156-17.105468 17.289062-21.429687 1.882812-1.125 2.523438-3.542969 1.441406-5.453125-1.078125-1.90625-3.488281-2.601562-5.417968-1.558594-3.175782 1.707032-6.457032 3.476563-9.722657 3.742188-2.308593.1875-5.261719-.703125-6.15625-2.730469-1.214843-2.746094 1.574219-6.667969 4.8125-8.964844 1.183594-.84375 2.46875-1.625 3.824219-2.453125 3.519531-2.140625 7.503906-4.566406 10.167969-8.539062.953125-1.421875.90625-3.292969-.121094-4.664063-1.023437-1.371093-2.804687-1.941406-4.4375-1.429687-3.554687 1.121094-7.234375 2.28125-10.605469 1.894531-2.417968-.273437-5.238281-1.796875-5.707031-4.078125-.328125-1.597656.402344-3.726562 2.234375-6.507812 4.777344-7.257813 11.800781-13.164063 19.773438-16.628907 1.859374-.808593 2.828124-2.875 2.261718-4.824219-.566406-1.949218-2.488281-3.171874-4.5-2.855468-4.996094.789062-8.386718.355468-10.367187-1.328125-1.425781-1.210938-1.835938-2.953125-1.929688-4.203125-.199219-2.683594.847657-5.765625 2.664063-7.855469 3.558594-4.078125 9.332031-6.171875 14.585937-7.957031.328125-.097656.648438-.207032.96875-.328125 2.046875-.789063 3.089844-3.070313 2.34375-5.132813-.746093-2.066406-3.003906-3.152344-5.082031-2.449218-.210938.070312-.429688.144531-.644531.21875-2.054688.570312-4-.183594-5.019531-.71875-2.367188-1.234376-4.203126-3.476563-4.789063-5.855469-1.332031-5.402344 1.878906-10.988281 5.648437-14.132813 3.90625-3.253906 9.441407-5.402344 16.914063-6.570312 1.957031-.304688 3.40625-1.988282 3.410156-3.96875.007813-1.984375-1.429687-3.675782-3.382812-3.992188-5.742188-.933594-10.316407-7.25-9.414063-12.996094.90625-5.746093 7.203125-10.351562 12.949219-9.472656 2.164063.332032 4.191406-1.121094 4.578125-3.273437.382812-2.152344-1.015625-4.21875-3.15625-4.660157-4.664062-.957031-9.164062-2.261718-10.511719-5.292968-1.277343-2.867188.945313-6.769532 3.824219-8.617188 3.3125-2.125 7.671875-2.820312 11.714844-3.195312.570312-.019532 1.148437-.070313 1.734375-.15625 2.152343-.3125 3.667969-2.28125 3.421875-4.441406-.242188-2.160157-2.144532-3.738282-4.328125-3.566407-.417969.035157-.839844.070313-1.265625.109375-.011719 0-.027344 0-.039063 0-2.214843 0-4.035156-1.113281-5.410156-3.3125-2.234375-3.566406-2.429687-8.851562-.433594-11.785156 1.347657-1.980469 3.566407-2.65625 6.777344-2.0625 3.421875.632812 6.738281 3.371094 8.664063 7.152344.730468 1.4375 2.242187 2.292968 3.855468 2.195312 1.609375-.105468 3.003906-1.164062 3.539063-2.683594 1.65625-4.710937 7.550781-7.792968 12.363281-6.476562 4.8125 1.320312 8.308594 6.980469 7.335938 11.875-.316407 1.578125.339843 3.195312 1.664062 4.105469 1.324219.914062 3.066406.953125 4.429688.097656.382812-.242187.769531-.484375 1.152343-.730469.757813-.492187 1.511719-.988281 2.261719-1.484375 4.300781-2.835937 8.363281-5.511719 12.980469-6.4375 4.265625-.859375 9.921875.34375 12.003906 4.257813.84375 1.589844.605469 3.964844-.574219 5.777344-.277344.425781-.738281 1.011718-1.359375 1.40625-1.066406.085937-2.121093.289062-3.144531.617187-1.839844.585937-3.003906 2.394531-2.777344 4.3125.226563 1.917969 1.777344 3.402344 3.703125 3.546875 1.308594.097656 2.597657-.050781 3.828125-.425781 1.261719.101562 2.574219.558593 3.757813 1.34375 1.9375 1.28125 3.203125 3.207031 3.382812 5.148437.183594 1.945313-.707031 4.070313-2.375 5.683594-1.664062 1.621094-3.816406 2.4375-5.753906 2.199219-2.066406-.261719-3.992187 1.105469-4.4375 3.144531-.441406 2.035156.742187 4.074219 2.730469 4.703125 4.996094 1.570313 8.5625 7.277344 7.78125 12.460937-.777344 5.179688-5.863282 9.585938-11.105469 9.621094-2.035156.011719-3.746094 1.546875-3.976563 3.570313-.234374 2.027343 1.085938 3.90625 3.070313 4.382812 5.929687 1.417969 12.84375 6.039063 14.003906 12.84375.515625 3.023438-.699219 6.558594-3.097656 9-1.082031 1.101563-3.332031 2.890625-6.234375 2.449219-1.992188-.300781-3.914062.921875-4.476562 2.863281-.5625 1.945313.402343 4.003907 2.253906 4.816407 5.617187 2.460937 10.941406 5.351562 11.832031 9.789062.707031 3.53125-1.761719 7.222656-4.523437 9.316406-3.546876 2.6875-8.242188 4.011719-12.785157 5.292969-1.886719.535156-3.121093 2.347656-2.917969 4.296875.203126 1.949219 1.78125 3.472656 3.738282 3.605469 2.414062.164062 4.773437 1.550781 6.476562 3.800781 1.699219 2.253906 2.410156 5.023438 1.902344 7.40625-.503906 2.390625-2.203125 4.574219-4.660156 5.988281zm310.738281 44.972657c-1.613281 6.921874-3.441406 14.765624-7.996094 20.316406-6.652343 8.101562-18.410156 10.796875-28.914062 12.679687-58.207031 10.460938-122.917969 12.179688-197.820313 5.253907-12.761718-1.179688-24.980468-2.792969-34.199218-9.527344-9.136719-6.675782-15.3125-18.429688-18.875-35.933594-.777344-3.835938-1.445313-7.8125-2.09375-11.65625-1.78125-10.597656-3.632813-21.546875-8.085938-31.734375.539062-4.324219-.710938-8.859375-3.558594-12.628906-.621094-.824219-1.296875-1.582031-2.023437-2.277344 2.0625-.910156 4.078125-2.015625 5.949219-3.433594 3.992187-3.027343 6.640624-7.179687 7.515624-11.464843 23.257813 12.550781 49.273438 19.433593 75.726563 20.019531 2.8125 6.355469 9.203125 11.628906 19.089844 15.699219 16.324219 6.71875 34.515625 10.117187 53.296875 10.117187 12.535156 0 25.332031-1.515625 38.003906-4.566406 9.878906-2.378907 21.761719-8.496094 28.355469-17.113281 2.445312.089843 4.886719.148437 7.3125.148437 25.332031 0 49.679687-4.816406 70.917969-14.078125 5.390624-2.351562 10.597656-5.023438 15.617187-7.960938zm58.238281-127.003907c-13.25 21.101563-34.152344 38.65625-58.859375 49.433594-21.101562 9.203125-45.476562 13.785156-70.835937 13.371094.449218-1.480469.722656-2.976563.832031-4.480469.585937.003906 1.171875.019531 1.753906.019531 24.996094 0 49.5625-6.554687 71.261719-19.042969 22.707031-13.070312 41.371094-32.121093 53.972656-55.085937 13.429688-24.476563 16.390625-49.753906 8.121094-69.355469-.34375-.820312-.933594-1.453125-1.644531-1.878906.160156-1.4375.261719-2.910156.257812-4.40625 2.292969.84375 4.5 2.601562 6.132813 5.003906 2.496094 3.675782 3.574218 8.265625 4.296875 12.269532 4.4375 24.582031-1.132813 51.609374-15.289063 74.152343zm0 0"/></svg>