<?xml version="1.0" encoding="iso-8859-1"?>
<!-- Generator: Adobe Illustrator 19.0.0, SVG Export Plug-In . SVG Version: 6.00 Build 0)  -->
<svg version="1.1" id="Capa_1" xmlns="http://www.w3.org/2000/svg" xmlns:xlink="http://www.w3.org/1999/xlink" x="0px" y="0px"
	 viewBox="0 0 512 512" style="enable-background:new 0 0 512 512;" xml:space="preserve">
<g>
	<path style="fill:#E9C1A4;" d="M258.374,277.098c21.887,0,42.531-5.101,60.701-14.129c18.866-9.374,35.069-22.982,47.231-39.508
		c15.118-20.542,23.995-45.591,23.995-72.626c0-14.126-2.425-27.712-6.898-40.395c23.113-5.571,40.225-25.595,40.225-49.447
		c0-28.161-23.855-50.991-53.278-50.991c-21.636,0-40.257,12.342-48.602,30.07c-18.809-9.879-40.407-15.502-63.375-15.502
		c-22.969,0-44.567,5.622-63.375,15.502c-8.346-17.727-26.968-30.069-48.603-30.069c-29.425,0-53.279,22.83-53.279,50.991
		c0,23.852,17.11,43.875,40.226,49.447c-4.471,12.684-6.898,26.268-6.898,40.395c0,27.034,8.878,52.084,23.995,72.626
		c12.162,16.526,28.364,30.134,47.231,39.508C215.843,271.997,236.487,277.098,258.374,277.098L258.374,277.098z M233.665,159.048
		c0-10.821,11.063-14.217,24.708-14.217c13.646,0,24.708,3.397,24.708,14.217c0,10.821-11.063,24.969-24.708,24.969
		C244.728,184.017,233.665,169.868,233.665,159.048z"/>
	<path style="fill:#C76F63;" d="M258.374,184.017c13.646,0,24.708-14.148,24.708-24.969s-11.063-14.217-24.708-14.217
		c-13.646,0-24.708,3.397-24.708,14.217C233.665,169.868,244.728,184.017,258.374,184.017z"/>
	<path style="fill:#55D08F;" d="M319.075,262.969c-18.17,9.028-38.814,14.129-60.701,14.129s-42.53-5.101-60.701-14.129
		c-12.465,14.511-19.318,33.009-19.318,52.138c0,44.194,35.826,80.019,80.019,80.019s80.019-35.826,80.019-80.019
		C338.393,295.977,331.54,277.48,319.075,262.969z"/>
	<path style="fill:#E9C1A4;" d="M319.075,262.969c12.465,14.511,19.318,33.009,19.318,52.138c0,44.194-35.826,80.019-80.019,80.019
		s-80.019-35.826-80.019-80.019c0-19.13,6.853-37.627,19.318-52.138c-18.866-9.374-35.069-22.982-47.231-39.508
		c-8.496-8.057-20.186-13.035-33.09-13.035c-25.968,0-47.022,20.15-47.022,45.003c0,24.855,21.054,45.004,47.022,45.004
		c1.166,0,2.322-0.042,3.466-0.122c-1.753,9.703-2.682,19.734-2.682,30.001c0,9.67,0.818,19.131,2.38,28.305
		c30.059,8.463,50.684,45.299,57.602,70.009c2.407,8.598,2.671,17.261,1.109,25.473v3.106l0.012-0.047
		c22.525,16.898,49.775,26.789,79.135,26.789c27.959,0,54.004-8.969,75.876-24.418c-3.041-9.915-3.364-20.731-0.365-31.442
		c7.297-26.062,29.841-65.615,62.62-71.136c1.383-8.652,2.105-17.553,2.105-26.639c0-10.267-0.926-20.298-2.682-30.001
		c1.145,0.081,2.302,0.122,3.468,0.122c25.969,0,47.021-20.149,47.021-45.004c0-24.852-21.052-45.003-47.021-45.003
		c-12.904,0-24.595,4.978-33.091,13.035C354.144,239.986,337.941,253.594,319.075,262.969z"/>
	<g>
		<path style="fill:#C76F63;" d="M396.505,356.95c-32.779,5.521-55.323,45.074-62.62,71.136
			c-2.999,10.713-2.676,21.527,0.365,31.442c5.782,18.862,21.4,34.471,42.691,39.931c32.483,8.331,65.871-10.118,74.575-41.208
			c8.704-31.088,8.647-89.18-34.941-100.359C409.529,356.086,402.828,355.886,396.505,356.95z"/>
		<path style="fill:#C76F63;" d="M116.134,357.488c32.78,5.521,55.325,45.074,62.621,71.136c2.999,10.712,2.676,21.526-0.364,31.443
			c-5.784,18.862-21.401,34.471-42.692,39.931c-32.483,8.33-65.871-10.118-74.575-41.207c-8.703-31.088-8.647-89.181,34.94-100.359
			C103.111,356.624,109.814,356.423,116.134,357.488z"/>
	</g>
</g>
<path d="M454.773,375.483c-8.143-14.111-20.159-23.29-35.714-27.279c-3.716-0.953-7.461-1.551-11.177-1.788
	c0.48-5.345,0.73-10.73,0.73-16.106c0-6.824-0.391-13.656-1.166-20.423c27.647-3.783,48.974-26.763,48.974-54.46
	c0-30.329-25.581-55.005-57.024-55.005c-3.084,0-6.127,0.248-9.117,0.709c6.464-15.569,10.023-32.542,10.023-50.298
	c0-11.544-1.495-22.936-4.454-33.993c22.685-9.582,37.781-31.292,37.781-55.848C433.63,27.362,405.243,0,370.351,0
	c-21.271,0-40.957,10.358-52.583,27.05c-18.524-8.188-38.867-12.481-59.393-12.481s-40.869,4.293-59.393,12.481
	C187.354,10.358,167.667,0,146.396,0c-34.893,0-63.281,27.362-63.281,60.994c0,24.557,15.098,46.267,37.783,55.849
	c-2.959,11.06-4.455,22.453-4.455,33.992c0,17.756,3.56,34.728,10.023,50.298c-2.989-0.461-6.032-0.709-9.116-0.709
	c-31.443,0-57.025,24.675-57.025,55.005c0,27.695,21.33,50.674,48.974,54.46c-0.775,6.771-1.167,13.605-1.167,20.423
	c0,5.524,0.265,11.055,0.772,16.546c-0.386-0.008-0.771-0.02-1.159-0.02c-4.894,0-9.874,0.641-14.804,1.904
	c-15.555,3.989-27.57,13.166-35.714,27.278c-14.095,24.426-13.358,60.525-6.376,85.467C59.18,491.229,87.31,512,119.262,512
	c1.339,0,2.68-0.044,4.018-0.118c0.058-0.001,0.115-0.001,0.173-0.004c0.088-0.004,0.176-0.012,0.264-0.017
	c0.104-0.006,0.207-0.013,0.31-0.02c26.193-1.425,49.252-16.886,60.158-39.198c22.542,13.977,47.94,21.305,74.186,21.305
	c25.056,0,49.464-6.747,71.286-19.581c0.352,0.658,0.698,1.319,1.073,1.969c9.434,16.347,24.962,28,43.722,32.811
	c5.986,1.535,12.138,2.315,18.283,2.315c31.952,0,60.082-20.772,68.408-50.513C468.131,436.008,468.867,399.908,454.773,375.483z
	 M103.121,60.994c0-22.601,19.413-40.989,43.275-40.989c17.07,0,32.595,9.549,39.551,24.328c1.162,2.469,3.283,4.355,5.869,5.223
	c2.587,0.867,5.415,0.64,7.832-0.628c17.879-9.391,38.186-14.354,58.724-14.354c20.539,0,40.845,4.963,58.724,14.354
	c2.416,1.269,5.246,1.496,7.832,0.628c2.587-0.868,4.707-2.755,5.869-5.223c6.957-14.779,22.481-24.328,39.552-24.328
	c23.862,0,43.275,18.387,43.275,40.989c0,15.991-9.727,30.21-24.466,36.928c-2.376-5.411-5.11-10.68-8.184-15.741
	c-2.869-4.721-9.019-6.222-13.741-3.356c-4.721,2.868-6.224,9.02-3.356,13.741c4.079,6.715,7.464,13.851,10.06,21.212
	c0.063,0.18,0.137,0.352,0.209,0.526c4.075,11.745,6.15,24.03,6.15,36.531c0,60.895-49.354,110.999-111.923,115.868v-74.374
	c14.48-4.959,24.708-20.001,24.708-33.281c0-7.282-3.382-24.22-34.71-24.22s-34.71,16.938-34.71,24.22
	c0,13.28,10.227,28.322,24.708,33.281v74.374c-62.568-4.868-111.923-54.973-111.923-115.868c0-12.684,2.129-25.156,6.329-37.07
	c0.941-2.67,0.707-5.612-0.645-8.1c-1.351-2.488-3.693-4.285-6.445-4.949C116.512,96.094,103.121,79.759,103.121,60.994z
	 M328.391,315.107c0,35.21-26.13,64.421-60.014,69.291V354.08c0-5.524-4.478-10.002-10.002-10.002
	c-5.524,0-10.002,4.478-10.002,10.002v30.317c-33.885-4.87-60.014-34.08-60.014-69.29c0-14.252,4.37-28.112,12.399-39.752
	c17.617,7.544,37.115,11.746,57.617,11.746s40-4.202,57.618-11.746C324.02,286.995,328.391,300.855,328.391,315.107z
	 M258.374,174.014c-7.833,0-14.706-9.328-14.706-14.967c0-0.975,0-1.379,1.653-2.194c1.533-0.755,5.268-2.021,13.052-2.021
	c7.784,0,11.519,1.267,13.052,2.021c1.653,0.814,1.653,1.218,1.653,2.194C273.08,164.686,266.206,174.014,258.374,174.014z
	 M70.118,456.093c-5.664-20.231-6.691-50.788,4.438-70.075c5.428-9.405,13.067-15.261,23.356-17.899
	c3.307-0.848,6.616-1.278,9.834-1.278c3.383,0,6.666,0.469,9.839,1.335c0.15,0.046,0.299,0.092,0.452,0.131
	c25.767,7.364,44.264,40.925,50.447,63.013c3.366,12.021,1.752,24.649-4.542,35.556c-6.722,11.647-17.861,19.969-31.365,23.432
	c-3.269,0.838-6.602,1.366-9.946,1.579c-0.009,0-0.018,0.001-0.026,0.002c-1.113,0.07-2.227,0.105-3.34,0.105
	C96.246,491.995,76.038,477.232,70.118,456.093z M258.374,473.944c-24.465,0-48.109-7.464-68.722-21.628
	c1.15-8.725,0.54-17.665-1.902-26.388c-7.281-26.007-27.781-62.385-58.238-74.765c-0.908-6.882-1.372-13.87-1.372-20.852
	c0-9.466,0.848-18.962,2.522-28.223c0.549-3.039-0.335-6.159-2.397-8.458c-2.062-2.299-5.071-3.518-8.148-3.299
	c-0.917,0.065-1.846,0.097-2.763,0.097c-20.413,0-37.02-15.702-37.02-35.001c0-19.299,16.607-35,37.02-35
	c9.765,0,18.946,3.56,25.908,10.02c10.676,14.189,24.123,26.333,39.574,35.698c-9.401,14.508-14.482,31.512-14.482,48.962
	c0,49.638,40.384,90.021,90.021,90.021s90.021-40.384,90.021-90.021c0-17.45-5.081-34.453-14.482-48.962
	c15.452-9.364,28.899-21.508,39.574-35.698c6.963-6.462,16.144-10.02,25.909-10.02c20.412,0,37.019,15.701,37.019,35
	c0,19.3-16.607,35.001-37.019,35.001c-0.916,0-1.847-0.033-2.766-0.097c-3.078-0.219-6.087,1-8.149,3.299
	c-2.06,2.299-2.946,5.42-2.397,8.459c1.673,9.25,2.522,18.744,2.522,28.221c0,6.194-0.364,12.398-1.078,18.517
	c-33.235,10.201-55.6,49.146-63.277,76.561c-2.751,9.826-3.179,19.927-1.379,29.687C303.28,467.427,281.122,473.944,258.374,473.944
	z M441.883,455.556c-5.917,21.139-26.126,35.903-49.144,35.903c-4.47,0-8.949-0.567-13.314-1.687
	c-13.505-3.463-24.645-11.785-31.365-23.432c-6.294-10.908-7.908-23.536-4.543-35.555c6.512-23.257,26.673-59.232,54.598-63.955
	c0.109-0.018,0.218-0.037,0.326-0.058c1.903-0.305,3.842-0.465,5.815-0.465c3.219,0,6.528,0.43,9.834,1.278
	c10.288,2.639,17.928,8.493,23.357,17.899C448.575,404.767,447.548,435.325,441.883,455.556z"/>
<path d="M321.264,145.39c9.232,0,16.761-7.207,16.761-16.043c0-8.835-7.529-16.042-16.761-16.042
	c-9.231,0-16.762,7.207-16.762,16.042C304.502,138.183,312.032,145.39,321.264,145.39z"/>
<path d="M195.485,145.39c9.231,0,16.761-7.207,16.761-16.043c0-8.835-7.53-16.042-16.761-16.042
	c-9.232,0-16.762,7.207-16.762,16.042C178.723,138.183,186.252,145.39,195.485,145.39z"/>
<path d="M346.749,70.743c1.947,1.948,4.494,2.92,7.043,2.92c2.557,0,5.115-0.978,7.072-2.929c3.908-3.897,3.902-10.241,0.011-14.155
	l-0.233-0.231c-3.967-3.844-10.314-3.761-14.159,0.206c-3.845,3.966-3.762,10.283,0.205,14.128
	C346.694,70.688,346.741,70.736,346.749,70.743z"/>
<path d="M248.369,325.107v0.236c0,5.524,4.478,10.002,10.002,10.002c5.524,0,10.002-4.478,10.002-10.002v-0.236
	c0-5.524-4.478-10.002-10.002-10.002C252.847,315.105,248.369,319.583,248.369,325.107z"/>
<g>
</g>
<g>
</g>
<g>
</g>
<g>
</g>
<g>
</g>
<g>
</g>
<g>
</g>
<g>
</g>
<g>
</g>
<g>
</g>
<g>
</g>
<g>
</g>
<g>
</g>
<g>
</g>
<g>
</g>
</svg>
